<?xml version="1.0" encoding="utf-8"?>
<!-- Generator: Adobe Illustrator 18.0.0, SVG Export Plug-In . SVG Version: 6.00 Build 0)  -->
<!DOCTYPE svg PUBLIC "-//W3C//DTD SVG 1.1//EN" "http://www.w3.org/Graphics/SVG/1.1/DTD/svg11.dtd">
<svg version="1.1" xmlns="http://www.w3.org/2000/svg" xmlns:xlink="http://www.w3.org/1999/xlink" x="0px" y="0px"
	 viewBox="48 80 404 340" enable-background="new 48 80 404 340" xml:space="preserve">
<g id="Layer_1">
	<rect x="72.7" y="98" fill="#E6E6E6" width="356.3" height="291"/>
	<circle fill="#FF766A" cx="84.8" cy="107.8" r="3.9"/>
	<circle fill="#FFF874" cx="96.7" cy="107.8" r="3.9"/>
	<circle fill="#7FFFA4" cx="108.6" cy="107.8" r="3.9"/>
	<path fill="#E6E6E6" d="M189.9,269.8v-0.7l-2.6,2.6l2.6,2.6v-0.6l-2-2L189.9,269.8z"/>
	<path fill="#F2F2F2" d="M165.7,321.8h-56.3c-0.9,0-1.6-0.7-1.6-1.6v-67.1c0-0.9,0.7-1.6,1.6-1.6h56.2c0.9,0,1.6,0.7,1.6,1.6v67.1
		C167.3,321.2,166.6,321.8,165.7,321.8z"/>
	<text transform="matrix(1 0 0 1 112.2694 301.0967)" fill="#525657" font-family="'Montserrat-Bold'" font-size="5.3445">Coach</text>
	<g>
		<text transform="matrix(1 0 0 1 112.4862 314.5244)" fill="#787E80" font-family="'Montserrat-Regular'" font-size="4.7507">View</text>
	</g>
	<path fill="#E6E6E6" d="M112.6,269.8v-0.7l-2.6,2.6l2.6,2.6v-0.6l-2-2L112.6,269.8z"/>
	<path fill="#E6E6E6" d="M162.5,273.9v0.6l2.6-2.6l-2.6-2.6v0.6l2,2L162.5,273.9z"/>
	<path fill="#B8B8B8" d="M166.4,250.8h-57.7c-0.5,0-0.9,0.4-0.9,0.9v38.9c-0.1,0.1,59.3-0.1,59.3,0v-38.9
		C167.3,251.2,166.9,250.8,166.4,250.8z"/>
	<text transform="matrix(1 0 0 1 289.7188 132.2666)" font-family="'Khula-Bold'" font-size="5.9384">About</text>
	<text transform="matrix(1 0 0 1 325.3496 132.2666)" font-family="'Khula-Bold'" font-size="5.9384">Shop</text>
	<text transform="matrix(1 0 0 1 355.0409 132.2666)" font-family="'Khula-Bold'" font-size="5.9384">Contact</text>
	<g>
		<path d="M404.2,132.5c-0.5,0-0.8,0.4-0.8,0.8c0,0.5,0.3,0.8,0.8,0.8c0.5,0,0.8-0.4,0.8-0.8C405.1,132.9,404.7,132.5,404.2,132.5z
			 M401.9,126.1v0.8h0.8l1.4,3l-0.5,0.9c-0.1,0.1-0.1,0.2-0.1,0.4c0,0.5,0.4,0.8,0.8,0.8h4.8v-0.8h-4.6c-0.1,0-0.1-0.1-0.1-0.1
			s0,0,0-0.1l0.4-0.6h3c0.3,0,0.5-0.2,0.7-0.4l1.4-2.6c0-0.1,0.1-0.2,0.1-0.2c0-0.2-0.2-0.4-0.4-0.4h-5.8l-0.4-0.8L401.9,126.1
			L401.9,126.1z M408.2,132.5c-0.5,0-0.8,0.4-0.8,0.8c0,0.5,0.3,0.8,0.8,0.8s0.8-0.4,0.8-0.8C409,132.9,408.6,132.5,408.2,132.5z"/>
		<path fill="none" d="M401.5,125.4h9.5v9.5h-9.5V125.4z"/>
	</g>
	<line fill="none" stroke="#999999" stroke-width="4" stroke-miterlimit="10" x1="-265.6" y1="579.7" x2="18.7" y2="579.7"/>
	<path fill="none" stroke="#E6E6E6" stroke-miterlimit="10" d="M123.3,523.8"/>
	<path fill="none" stroke="#E6E6E6" stroke-miterlimit="10" d="M116.6,513.5"/>
	<path fill="none" stroke="#E6E6E6" stroke-miterlimit="10" d="M123.3,503.6"/>
	<path fill="none" stroke="#E6E6E6" stroke-miterlimit="10" d="M228,503.6"/>
	<path fill="none" stroke="#E6E6E6" stroke-miterlimit="10" d="M234.6,513.7"/>
	<text transform="matrix(1 0 0 1 89.5585 132.2666)" font-family="'Khula-Bold'" font-size="5.9384">BRAND</text>
	<rect x="97.9" y="186.3" fill="#B8B8B8" width="50.8" height="7.9"/>
	<rect x="160.2" y="186.3" fill="#B8B8B8" width="20.2" height="7.9"/>
	<rect x="222.5" y="186.3" fill="#B8B8B8" width="71.6" height="7.9"/>
	<rect x="191.4" y="186.3" fill="#B8B8B8" width="20.2" height="7.9"/>
	<rect x="97.9" y="201.9" fill="#B8B8B8" width="56.9" height="7.9"/>
	<rect x="167.7" y="201.9" fill="#B8B8B8" width="22.7" height="7.9"/>
	<rect x="237.5" y="201.9" fill="#B8B8B8" width="80.2" height="7.9"/>
	<rect x="202.6" y="201.9" fill="#B8B8B8" width="22.7" height="7.9"/>
	<rect x="-288.1" y="101.5" fill="#B8B8B8" width="304.6" height="50.2"/>
	<circle fill="#E6E6E6" cx="-264.8" cy="126.6" r="16.2"/>
	<rect x="-231.1" y="118.7" fill="#E6E6E6" width="55.3" height="7.9"/>
	<rect x="-137.9" y="111.6" fill="#E6E6E6" width="55.3" height="6.8"/>
	<rect x="-77.6" y="111.3" fill="#E6E6E6" width="21.8" height="7"/>
	<rect x="-111.1" y="120.9" fill="#E6E6E6" width="55.3" height="6.8"/>
	<rect x="-137.9" y="120.6" fill="#E6E6E6" width="21.8" height="7"/>
	<rect x="-137.9" y="129.4" fill="#E6E6E6" width="55.3" height="6.8"/>
	<rect x="-77.6" y="129.2" fill="#E6E6E6" width="21.8" height="7"/>
	<rect x="-288.1" y="171.6" fill="#B8B8B8" width="304.6" height="50.2"/>
	<circle fill="#E6E6E6" cx="-264.8" cy="196.7" r="16.2"/>
	<rect x="-231.1" y="188.8" fill="#E6E6E6" width="55.3" height="7.9"/>
	<rect x="-137.9" y="181.6" fill="#E6E6E6" width="55.3" height="6.8"/>
	<rect x="-77.6" y="181.4" fill="#E6E6E6" width="21.8" height="7"/>
	<rect x="-111.1" y="190.9" fill="#E6E6E6" width="55.3" height="6.8"/>
	<rect x="-137.9" y="190.7" fill="#E6E6E6" width="21.8" height="7"/>
	<rect x="-137.9" y="199.5" fill="#E6E6E6" width="55.3" height="6.8"/>
	<rect x="-77.6" y="199.3" fill="#E6E6E6" width="21.8" height="7"/>
	<rect x="-288.1" y="236.3" fill="#B8B8B8" width="304.6" height="50.2"/>
	<circle fill="#E6E6E6" cx="-264.8" cy="261.3" r="16.2"/>
	<rect x="-231.1" y="253.6" fill="#E6E6E6" width="55.3" height="7.9"/>
	<rect x="-137.9" y="246.2" fill="#E6E6E6" width="55.3" height="6.8"/>
	<rect x="-77.6" y="246.1" fill="#E6E6E6" width="21.8" height="7"/>
	<rect x="-111.1" y="255.6" fill="#E6E6E6" width="55.3" height="6.8"/>
	<rect x="-137.9" y="255.4" fill="#E6E6E6" width="21.8" height="7"/>
	<rect x="-137.9" y="264.2" fill="#E6E6E6" width="55.3" height="6.8"/>
	<rect x="-77.6" y="264" fill="#E6E6E6" width="21.8" height="7"/>
	<rect x="97.9" y="157.3" fill="#B8B8B8" width="81.7" height="18.4"/>
	<path fill="#F2F2F2" d="M237.4,321.8h-56.2c-0.9,0-1.6-0.7-1.6-1.6v-67.1c0-0.9,0.7-1.6,1.6-1.6h56.2c0.9,0,1.6,0.7,1.6,1.6v67.1
		C238.9,321.2,238.2,321.8,237.4,321.8z"/>
	<g>
		<text transform="matrix(1 0 0 1 184.164 314.5244)" fill="#787E80" font-family="'Montserrat-Regular'" font-size="4.7507">View</text>
	</g>
	<path fill="#E6E6E6" d="M184.3,269.8v-0.7l-2.6,2.6l2.6,2.6v-0.6l-2-2L184.3,269.8z"/>
	<path fill="#B8B8B8" d="M238.1,250.8h-57.7c-0.5,0-0.9,0.4-0.9,0.9v38.9c-0.1,0.1,59.3-0.1,59.3,0v-38.9
		C238.9,251.2,238.6,250.8,238.1,250.8z"/>
	<path fill="#F2F2F2" d="M316.1,321.8h-56.2c-0.9,0-1.6-0.7-1.6-1.6v-67.1c0-0.9,0.7-1.6,1.6-1.6h56.2c0.9,0,1.6,0.7,1.6,1.6v67.1
		C317.7,321.2,317,321.8,316.1,321.8z"/>
	<g>
		<text transform="matrix(1 0 0 1 262.8915 314.5244)" fill="#787E80" font-family="'Montserrat-Regular'" font-size="4.7507">View</text>
	</g>
	<path fill="#E6E6E6" d="M263.1,269.8v-0.7l-2.6,2.6l2.6,2.6v-0.6l-2-2L263.1,269.8z"/>
	<path fill="#B8B8B8" d="M316.8,250.8h-57.7c-0.5,0-0.9,0.4-0.9,0.9v38.9c-0.1,0.1,59.3-0.1,59.3,0v-38.9
		C317.7,251.2,317.3,250.8,316.8,250.8z"/>
	<path fill="#F2F2F2" d="M394.8,321.8h-56.2c-0.9,0-1.6-0.7-1.6-1.6v-67.1c0-0.9,0.7-1.6,1.6-1.6h56.2c0.9,0,1.6,0.7,1.6,1.6v67.1
		C396.3,321.2,395.6,321.8,394.8,321.8z"/>
	<g>
		<text transform="matrix(1 0 0 1 341.5527 314.5244)" fill="#787E80" font-family="'Montserrat-Regular'" font-size="4.7507">View</text>
	</g>
	<path fill="#E6E6E6" d="M341.7,269.8v-0.7l-2.6,2.6l2.6,2.6v-0.6l-2-2L341.7,269.8z"/>
	<path fill="#B8B8B8" d="M395.5,250.8h-57.7c-0.5,0-0.9,0.4-0.9,0.9v38.9c-0.1,0.1,59.3-0.1,59.3,0v-38.9
		C396.3,251.2,396,250.8,395.5,250.8z"/>
	<text transform="matrix(1 0 0 1 183.0218 300.3183)" fill="#525657" font-family="'Montserrat-Bold'" font-size="5.3445">Coach</text>
	<text transform="matrix(1 0 0 1 261.7596 300.3174)" fill="#525657" font-family="'Montserrat-Bold'" font-size="5.3445">Coach</text>
	<text transform="matrix(1 0 0 1 341.5527 301.0966)" fill="#525657" font-family="'Montserrat-Bold'" font-size="5.3445">Coach</text>
</g>
<g id="content-a">
	<g id="content-a_2_">
		
			<rect x="84" y="146.3" opacity="0.5" fill="#F0F0F0" stroke="#6AFFCA" stroke-width="5" stroke-miterlimit="10" enable-background="new    " width="322.3" height="77.4"/>
	</g>
</g>
</svg>
