<?xml version="1.0" encoding="utf-8"?>
<!-- Generator: Adobe Illustrator 18.0.0, SVG Export Plug-In . SVG Version: 6.00 Build 0)  -->
<!DOCTYPE svg PUBLIC "-//W3C//DTD SVG 1.1//EN" "http://www.w3.org/Graphics/SVG/1.1/DTD/svg11.dtd">
<svg version="1.1" xmlns="http://www.w3.org/2000/svg" xmlns:xlink="http://www.w3.org/1999/xlink" x="0px" y="0px"
	 viewBox="0 148 500 204" enable-background="new 0 148 500 204" xml:space="preserve">
<g id="Layer_1">
	<path fill="#B8B8B8" d="M473,177.1H29v137c-0.6,0.3,444-0.2,444,0V177.1z"/>
	<line fill="none" stroke="#E6E6E6" stroke-width="6" stroke-miterlimit="10" x1="73" y1="213.7" x2="426" y2="213.7"/>
	<text transform="matrix(1 0 0 1 72.2997 202.1058)" fill="#E6E6E6" font-family="'Montserrat-Bold'" font-size="11.8394">FOOTER</text>
	<g>
		<g>
			<rect x="101" y="237.7" fill="#E6E6E6" width="65" height="10.5"/>
			<rect x="101" y="257.7" fill="#E6E6E6" width="65" height="10.5"/>
			<rect x="101" y="277.7" fill="#E6E6E6" width="65" height="10.5"/>
		</g>
	</g>
	<g>
		<g>
			<rect x="224" y="237.7" fill="#E6E6E6" width="65" height="10.5"/>
			<rect x="224" y="257.7" fill="#E6E6E6" width="65" height="10.5"/>
			<rect x="224" y="277.7" fill="#E6E6E6" width="65" height="10.5"/>
		</g>
	</g>
	<g>
		<g>
			<rect x="346" y="237.7" fill="#E6E6E6" width="65" height="10.5"/>
			<rect x="346" y="257.7" fill="#E6E6E6" width="65" height="10.5"/>
			<rect x="346" y="277.7" fill="#E6E6E6" width="65" height="10.5"/>
		</g>
	</g>
</g>
<g id="content-c_1_">
	<g id="content-a_3_">
		
			<rect x="329" y="223.5" opacity="0.5" fill="#F0F0F0" stroke="#6AFFCA" stroke-width="5" stroke-miterlimit="10" enable-background="new    " width="95" height="77.4"/>
	</g>
</g>
<g id="content-b">
	<g id="content-a_1_">
		
			<rect x="207" y="224.3" opacity="0.5" fill="#F0F0F0" stroke="#6AFFCA" stroke-width="5" stroke-miterlimit="10" enable-background="new    " width="95" height="77.4"/>
	</g>
</g>
<g id="content-a">
	<g id="content-a_2_">
		
			<rect x="86" y="224.3" opacity="0.5" fill="#F0F0F0" stroke="#6AFFCA" stroke-width="5" stroke-miterlimit="10" enable-background="new    " width="95" height="77.4"/>
	</g>
</g>
</svg>
