<?xml version="1.0" encoding="utf-8"?>
<!-- Generator: Adobe Illustrator 18.0.0, SVG Export Plug-In . SVG Version: 6.00 Build 0)  -->
<!DOCTYPE svg PUBLIC "-//W3C//DTD SVG 1.1//EN" "http://www.w3.org/Graphics/SVG/1.1/DTD/svg11.dtd">
<svg version="1.1" xmlns="http://www.w3.org/2000/svg" xmlns:xlink="http://www.w3.org/1999/xlink" x="0px" y="0px"
	 viewBox="87 43 326 414" enable-background="new 87 43 326 414" xml:space="preserve">
<g id="Layer_1">
	<g id="Layer_1_2_">
		<g id="Layer_1_1_">
			<rect x="107.7" y="80.4" opacity="0.24" fill="#F0F0F0" enable-background="new    " width="285.9" height="142.9"/>
			<rect x="107.7" y="63.9" fill="#E6E6E6" width="285.9" height="376.9"/>
			<circle fill="#FF766A" cx="117.4" cy="71.8" r="3.1"/>
			<circle fill="#FFF874" cx="126.9" cy="71.8" r="3.1"/>
			<circle fill="#7FFFA4" cx="136.5" cy="71.8" r="3.1"/>
			<path fill="#F2F2F2" d="M62.8,441.7H17.7c-0.7,0-1.2-0.6-1.2-1.2v-53.8c0-0.7,0.6-1.2,1.2-1.2h45.1c0.7,0,1.2,0.6,1.2,1.2v53.8
				C64.1,441.1,63.5,441.7,62.8,441.7z"/>
			<text transform="matrix(1 0 0 1 19.9385 425.0225)" fill="#525657" font-family="'Montserrat-Bold'" font-size="4.289">Product</text>
			<line fill="none" stroke="#999999" stroke-miterlimit="10" x1="20" y1="429.5" x2="60" y2="429.5"/>
			<g>
				<text transform="matrix(1 0 0 1 20.1122 435.799)" fill="#787E80" font-family="'Montserrat-Regular'" font-size="3.8124">Colors</text>
			</g>
			<path fill="#787E80" d="M39.4,434.2l-0.8,0.8l-0.8-0.8l-0.2,0.2l1.1,1.1l1.1-1.1L39.4,434.2z"/>
			<path fill="#E6E6E6" d="M20.2,399.9v-0.5l-2.1,2.1l2.1,2.1v-0.5l-1.6-1.6L20.2,399.9z"/>
			<path fill="#E6E6E6" d="M60.2,403.2v0.5l2.1-2.1l-2.1-2.1v0.5l1.6,1.6L60.2,403.2z"/>
			<path fill="#B8B8B8" d="M63.4,384.7H17.1c-0.4,0-0.7,0.3-0.7,0.7v31.2c-0.1,0.1,47.6-0.1,47.6,0v-31.2
				C64.1,385,63.8,384.7,63.4,384.7z"/>
			<circle fill="#525657" stroke="#FFFFFF" stroke-miterlimit="10" cx="55.4" cy="416.4" r="4.8"/>
			<text transform="matrix(1 0 0 1 51.8038 417.7696)" fill="#FFFFFF" font-family="'Khula-Regular'" font-size="3.8124">$79</text>
			<path fill="#F2F2F2" d="M3.2,441.7h-45.1c-0.7,0-1.2-0.6-1.2-1.2v-53.8c0-0.7,0.6-1.2,1.2-1.2H3.2c0.7,0,1.2,0.6,1.2,1.2v53.8
				C4.5,441.1,3.9,441.7,3.2,441.7z"/>
			<text transform="matrix(1 0 0 1 -39.6315 425.0225)" fill="#525657" font-family="'Montserrat-Bold'" font-size="4.289">Product</text>
			<line fill="none" stroke="#999999" stroke-miterlimit="10" x1="-40" y1="429.5" x2="0.6" y2="429.5"/>
			<g>
				<text transform="matrix(1 0 0 1 -39.4572 435.799)" fill="#787E80" font-family="'Montserrat-Regular'" font-size="3.8124">Colors</text>
			</g>
			<path fill="#787E80" d="M-20.2,434.2l-0.8,0.8l-0.8-0.8l-0.2,0.2l1.1,1.1l1.1-1.1L-20.2,434.2z"/>
			<path fill="#E6E6E6" d="M-39.3,399.9v-0.5l-2.1,2.1l2.1,2.1v-0.5l-1.6-1.6L-39.3,399.9z"/>
			<path fill="#E6E6E6" d="M0.7,403.2v0.5l2.1-2.1l-2.1-2.1v0.5l1.6,1.6L0.7,403.2z"/>
			<path fill="#B8B8B8" d="M3.8,384.7h-46.3c-0.4,0-0.7,0.3-0.7,0.7v31.2c-0.1,0.1,47.6-0.1,47.6,0v-31.2
				C4.5,385,4.2,384.7,3.8,384.7z"/>
			<circle fill="#525657" stroke="#FFFFFF" stroke-miterlimit="10" cx="-4.1" cy="416.4" r="4.8"/>
			<text transform="matrix(1 0 0 1 -7.7662 417.7696)" fill="#FFFFFF" font-family="'Khula-Regular'" font-size="3.8124">$79</text>
			<path fill="#F2F2F2" d="M-56.3,441.7h-45.1c-0.7,0-1.2-0.6-1.2-1.2v-53.8c0-0.7,0.6-1.2,1.2-1.2h45.1c0.7,0,1.2,0.6,1.2,1.2v53.8
				C-55.1,441.1-55.6,441.7-56.3,441.7z"/>
			<text transform="matrix(1 0 0 1 -99.2011 425.0225)" fill="#525657" font-family="'Montserrat-Bold'" font-size="4.289">Product</text>
			<line fill="none" stroke="#999999" stroke-miterlimit="10" x1="-99.4" y1="429.5" x2="-59.4" y2="429.5"/>
			<g>
				<text transform="matrix(1 0 0 1 -99.0263 435.799)" fill="#787E80" font-family="'Montserrat-Regular'" font-size="3.8124">Colors</text>
			</g>
			<path fill="#787E80" d="M-79.8,434.2l-0.8,0.8l-0.8-0.8l-0.2,0.2l1.1,1.1l1.1-1.1L-79.8,434.2z"/>
			<path fill="#E6E6E6" d="M-98.9,399.9v-0.5l-2.1,2.1l2.1,2.1v-0.5l-1.6-1.6L-98.9,399.9z"/>
			<path fill="#E6E6E6" d="M-58.9,403.2v0.5l2.1-2.1l-2.1-2.1v0.5l1.6,1.6L-58.9,403.2z"/>
			<path fill="#B8B8B8" d="M-55.8,384.7h-46.3c-0.4,0-0.7,0.3-0.7,0.7v31.2c-0.1,0.1,47.6-0.1,47.6,0v-31.2
				C-55.1,385-55.4,384.7-55.8,384.7z"/>
			<circle fill="#525657" stroke="#FFFFFF" stroke-miterlimit="10" cx="-63.7" cy="416.4" r="4.8"/>
			<text transform="matrix(1 0 0 1 -67.3359 417.7696)" fill="#FFFFFF" font-family="'Khula-Regular'" font-size="3.8124">$79</text>
			<path fill="#F2F2F2" d="M-118.3,441.7h-45.1c-0.7,0-1.2-0.6-1.2-1.2v-53.8c0-0.7,0.6-1.2,1.2-1.2h45.1c0.7,0,1.2,0.6,1.2,1.2
				v53.8C-117,441.1-117.6,441.7-118.3,441.7z"/>
			<text transform="matrix(1 0 0 1 -161.1534 425.0225)" fill="#525657" font-family="'Montserrat-Bold'" font-size="4.289">Product</text>
			<line fill="none" stroke="#999999" stroke-miterlimit="10" x1="-161.2" y1="429.5" x2="-121.2" y2="429.5"/>
			<g>
				<text transform="matrix(1 0 0 1 -160.9795 435.799)" fill="#787E80" font-family="'Montserrat-Regular'" font-size="3.8124">Colors</text>
			</g>
			<path fill="#787E80" d="M-141.8,434.2l-0.8,0.8l-0.8-0.8l-0.2,0.2l1.1,1.1l1.1-1.1L-141.8,434.2z"/>
			<path fill="#E6E6E6" d="M-160.9,399.9v-0.5l-2.1,2.1l2.1,2.1v-0.5l-1.6-1.6L-160.9,399.9z"/>
			<path fill="#E6E6E6" d="M-120.9,403.2v0.5l2.1-2.1l-2.1-2.1v0.5l1.6,1.6L-120.9,403.2z"/>
			<path fill="#B8B8B8" d="M-117.7,384.7H-164c-0.4,0-0.7,0.3-0.7,0.7v31.2c-0.1,0.1,47.6-0.1,47.6,0v-31.2
				C-117,385-117.3,384.7-117.7,384.7z"/>
			<circle fill="#525657" stroke="#FFFFFF" stroke-miterlimit="10" cx="-125.6" cy="416.4" r="4.8"/>
			<text transform="matrix(1 0 0 1 -129.288 417.7696)" fill="#FFFFFF" font-family="'Khula-Regular'" font-size="3.8124">$79</text>
			<text transform="matrix(1 0 0 1 281.8741 91.411)" font-family="'Khula-Bold'" font-size="4.7656">About</text>
			<text transform="matrix(1 0 0 1 310.4678 91.411)" font-family="'Khula-Bold'" font-size="4.7656">Shop</text>
			<text transform="matrix(1 0 0 1 334.2958 91.411)" font-family="'Khula-Bold'" font-size="4.7656">Contact</text>
			<g>
				<path d="M373.8,91.6c-0.4,0-0.6,0.3-0.6,0.6c0,0.4,0.2,0.6,0.6,0.6s0.6-0.3,0.6-0.6C374.4,91.9,374.1,91.6,373.8,91.6z
					 M371.9,86.5v0.6h0.6l1.1,2.4l-0.4,0.8c-0.1,0.1-0.1,0.2-0.1,0.3c0,0.4,0.3,0.6,0.6,0.6h3.8v-0.6h-3.7c-0.1,0-0.1-0.1-0.1-0.1
					s0,0,0-0.1l0.3-0.5h2.4c0.2,0,0.4-0.1,0.6-0.3l1.1-2.1c0-0.1,0.1-0.1,0.1-0.1c0-0.2-0.1-0.3-0.3-0.3h-4.7l-0.3-0.6L371.9,86.5
					L371.9,86.5z M376.9,91.6c-0.4,0-0.6,0.3-0.6,0.6c0,0.4,0.2,0.6,0.6,0.6s0.6-0.3,0.6-0.6S377.3,91.6,376.9,91.6z"/>
				<path fill="none" d="M371.6,85.9h7.6v7.6h-7.6V85.9z"/>
			</g>
			<line fill="none" stroke="#999999" stroke-width="4" stroke-miterlimit="10" x1="-163.8" y1="450.5" x2="64.4" y2="450.5"/>
			<path fill="none" stroke="#E6E6E6" stroke-miterlimit="10" d="M148.3,405.6"/>
			<path fill="none" stroke="#E6E6E6" stroke-miterlimit="10" d="M142.9,397.4"/>
			<path fill="none" stroke="#E6E6E6" stroke-miterlimit="10" d="M148.3,389.4"/>
			<path fill="none" stroke="#E6E6E6" stroke-miterlimit="10" d="M232.3,389.4"/>
			<path fill="none" stroke="#E6E6E6" stroke-miterlimit="10" d="M237.6,397.5"/>
			<polyline fill="none" stroke="#525657" stroke-miterlimit="10" points="126.6,140.6 121.2,148.7 126.6,156.8 			"/>
			<polyline fill="none" stroke="#525657" stroke-miterlimit="10" points="375.5,156.8 380.9,148.7 375.5,140.6 			"/>
			<text transform="matrix(1 0 0 1 121.2457 91.411)" font-family="'Khula-Bold'" font-size="4.7656">BRAND</text>
			<rect x="216.1" y="136.3" fill="#B8B8B8" width="67.3" height="10.4"/>
			<rect x="229.3" y="148.8" fill="#B8B8B8" width="40.7" height="6.3"/>
			<g>
				<rect x="140.4" y="257.5" fill="#B8B8B8" width="79.4" height="11.1"/>
				<rect x="140.4" y="271.9" fill="#B8B8B8" width="109.6" height="3.9"/>
				<rect x="140.4" y="279" fill="#B8B8B8" width="104.7" height="3.9"/>
			</g>
			<g>
				<rect x="239.8" y="330.5" fill="#B8B8B8" width="79.4" height="11.1"/>
				<rect x="239.8" y="344.9" fill="#B8B8B8" width="109.6" height="3.9"/>
				<rect x="239.8" y="351.9" fill="#B8B8B8" width="104.7" height="3.9"/>
			</g>
			<g>
				<rect x="140.4" y="330.5" fill="#B8B8B8" width="37.9" height="11.1"/>
				<rect x="140.4" y="344.9" fill="#B8B8B8" width="52.3" height="3.9"/>
				<rect x="140.4" y="351.9" fill="#B8B8B8" width="49.9" height="3.9"/>
			</g>
			<g>
				<rect x="308.1" y="257.5" fill="#B8B8B8" width="37.9" height="11.1"/>
				<rect x="308.1" y="271.9" fill="#B8B8B8" width="52.3" height="3.9"/>
				<rect x="308.1" y="279" fill="#B8B8B8" width="49.9" height="3.9"/>
			</g>
		</g>
	</g>
</g>
<g id="content-slideshow">
	<g id="content-a_2_">
		
			<rect x="110" y="102.3" opacity="0.5" fill="#F0F0F0" stroke="#6AFFCA" stroke-width="5" stroke-miterlimit="10" enable-background="new    " width="280.2" height="95.7"/>
	</g>
</g>
<g id="content-a">
	<g id="content-a_1_">
		
			<rect x="201" y="128" opacity="0.5" fill="#F0F0F0" stroke="#6AFFCA" stroke-width="5" stroke-miterlimit="10" enable-background="new    " width="97.4" height="35.4"/>
	</g>
</g>
<g id="content-b">
	<g id="content-a_3_">
		
			<rect x="292.2" y="237.1" opacity="0.5" fill="#F0F0F0" stroke="#6AFFCA" stroke-width="5" stroke-miterlimit="10" enable-background="new    " width="88.7" height="62.9"/>
	</g>
</g>
<g id="content-c">
	<g id="content-a_4_">
		
			<rect x="129.4" y="312.1" opacity="0.5" fill="#F0F0F0" stroke="#6AFFCA" stroke-width="5" stroke-miterlimit="10" enable-background="new    " width="90.4" height="62.9"/>
	</g>
</g>
<g id="content-d">
	<g id="content-a_5_">
		
			<rect x="229.3" y="312.1" opacity="0.5" fill="#F0F0F0" stroke="#6AFFCA" stroke-width="5" stroke-miterlimit="10" enable-background="new    " width="151.6" height="62.9"/>
	</g>
</g>
</svg>
