<?xml version="1.0" encoding="utf-8"?>
<!-- Generator: Adobe Illustrator 18.0.0, SVG Export Plug-In . SVG Version: 6.00 Build 0)  -->
<!DOCTYPE svg PUBLIC "-//W3C//DTD SVG 1.1//EN" "http://www.w3.org/Graphics/SVG/1.1/DTD/svg11.dtd">
<svg version="1.1" xmlns="http://www.w3.org/2000/svg" xmlns:xlink="http://www.w3.org/1999/xlink" x="0px" y="0px"
	 viewBox="0 0 145.5 185.8" enable-background="new 0 0 145.5 185.8" xml:space="preserve">
<g id="white">
	<polygon fill="#FFFFFF" points="1.8,0 1.8,123.5 74.4,184.1 143.6,124.4 143.6,0.1 	"/>
</g>
<g id="green">
	<g>
		<defs>
			<polygon id="XMLID_4_" points="-215.1,-22 -215.1,101.5 -142.6,162.1 -73.3,102.4 -73.3,-21.9 			"/>
		</defs>
		<use xlink:href="#XMLID_4_"  overflow="visible" fill="#91C7B4"/>
		<clipPath id="XMLID_2_">
			<use xlink:href="#XMLID_4_"  overflow="visible"/>
		</clipPath>
	</g>
	<g>
		<defs>
			<path id="XMLID_3_" d="M-214,6.1l0.5,87.3l71.4,59.1c0.2,0.5,67.8-59.1,67.8-59.1l0.1-87.8L-214,6.1z"/>
		</defs>
		<use xlink:href="#XMLID_3_"  overflow="visible" fill="#FFFFFF"/>
		<clipPath id="XMLID_5_">
			<use xlink:href="#XMLID_3_"  overflow="visible"/>
		</clipPath>
		
			<ellipse clip-path="url(#XMLID_5_)" fill="#FFFFFF" stroke="#91C7B4" stroke-width="5" stroke-miterlimit="10" cx="-142.6" cy="142.1" rx="47.9" ry="63.7"/>
	</g>
	<g>
		<path fill="#91C7B4" d="M-124.4,91.5c-3.7-1.8-8.1-2.2-12.3-0.6c-4.2,1.6-7.2,4.8-8.7,8.6c2.9,1.8,5.4,4.7,6.8,8.5
			c1.4,3.7,1.5,7.6,0.6,10.9c3.7,1.8,8.1,2.2,12.3,0.6c4.2-1.6,7.2-4.8,8.7-8.6c-2.9-1.8-5.4-4.7-6.8-8.5
			C-125.3,98.6-125.4,94.8-124.4,91.5z"/>
		<path fill="#91C7B4" d="M-145.7,100.7c-1.2,3.1-1.3,6.6,0,10c1.3,3.4,3.7,5.9,6.7,7.4c0.9-3,0.7-6.4-0.5-9.8
			C-140.8,104.9-143.1,102.3-145.7,100.7z"/>
		<path fill="#91C7B4" d="M-123.4,92.1c-0.9,2.9-0.8,6.4,0.5,9.8c1.3,3.4,3.5,6,6.1,7.6c1.2-3.1,1.3-6.6,0.1-10
			C-118,96.1-120.5,93.6-123.4,92.1z"/>
	</g>
	
		<text transform="matrix(0.9806 0 0 1 -209.8143 58.4479)" fill="#91C7B4" font-family="'AvenirNext-DemiBold'" font-size="21.5706">ADVANTAGE</text>
	<text transform="matrix(0.9806 0 0 1 -208.3832 38.609)" fill="#91C7B4" font-family="'AvenirNext-DemiBold'" font-size="37.2104">TENNIS</text>
	
		<text transform="matrix(0.9806 0 0 1 -208.5155 -4.865583e-02)" fill="#FFFFFF" font-family="'AvenirNext-DemiBold'" font-size="22.7677">GREGSON’S</text>
	<line fill="#91C7B4" stroke="#91C7B4" stroke-miterlimit="10" x1="-142.4" y1="77.9" x2="-142.4" y2="152.5"/>
	<line fill="#91C7B4" stroke="#91C7B4" stroke-miterlimit="10" x1="-137.2" y1="77.9" x2="-137.2" y2="152.5"/>
	<line fill="#91C7B4" stroke="#91C7B4" stroke-miterlimit="10" x1="-131.8" y1="79.1" x2="-131.8" y2="149.6"/>
	<line fill="#91C7B4" stroke="#91C7B4" stroke-miterlimit="10" x1="-126.5" y1="81.7" x2="-126.5" y2="146"/>
	<line fill="#91C7B4" stroke="#91C7B4" stroke-miterlimit="10" x1="-121.2" y1="83.8" x2="-121.2" y2="143.1"/>
	<line fill="#91C7B4" stroke="#91C7B4" stroke-miterlimit="10" x1="-115.9" y1="86.2" x2="-115.9" y2="137.7"/>
	<line fill="#91C7B4" stroke="#91C7B4" stroke-miterlimit="10" x1="-110.6" y1="90.9" x2="-110.6" y2="130.7"/>
	<line fill="#91C7B4" stroke="#91C7B4" stroke-miterlimit="10" x1="-105.2" y1="99.9" x2="-105.2" y2="127.1"/>
	<line fill="#91C7B4" stroke="#91C7B4" stroke-miterlimit="10" x1="-99.9" y1="109.5" x2="-99.9" y2="121.6"/>
	<line fill="#91C7B4" stroke="#91C7B4" stroke-miterlimit="10" x1="-142.5" y1="79.6" x2="-142.5" y2="154.2"/>
	<line fill="#91C7B4" stroke="#91C7B4" stroke-miterlimit="10" x1="-147.8" y1="79.6" x2="-147.8" y2="154.2"/>
	<line fill="#91C7B4" stroke="#91C7B4" stroke-miterlimit="10" x1="-153.1" y1="80.8" x2="-153.1" y2="146.2"/>
	<line fill="#91C7B4" stroke="#91C7B4" stroke-miterlimit="10" x1="-158.4" y1="83.3" x2="-158.4" y2="147.6"/>
	<line fill="#91C7B4" stroke="#91C7B4" stroke-miterlimit="10" x1="-163.8" y1="85.4" x2="-163.8" y2="141.8"/>
	<line fill="#91C7B4" stroke="#91C7B4" stroke-miterlimit="10" x1="-169.1" y1="87.8" x2="-169.1" y2="139.4"/>
	<line fill="#91C7B4" stroke="#91C7B4" stroke-miterlimit="10" x1="-174.4" y1="92.6" x2="-174.4" y2="130.4"/>
	<line fill="#91C7B4" stroke="#91C7B4" stroke-miterlimit="10" x1="-179.7" y1="98.2" x2="-179.7" y2="127.7"/>
	<line fill="#91C7B4" stroke="#91C7B4" stroke-miterlimit="10" x1="-104.6" y1="121.2" x2="-179.2" y2="121.2"/>
	<line fill="#91C7B4" stroke="#91C7B4" stroke-miterlimit="10" x1="-109.9" y1="126.5" x2="-180.1" y2="126.5"/>
	<line fill="#91C7B4" stroke="#91C7B4" stroke-miterlimit="10" x1="-110.8" y1="131.8" x2="-175.3" y2="131.8"/>
	<line fill="#91C7B4" stroke="#91C7B4" stroke-miterlimit="10" x1="-117.4" y1="137.1" x2="-166.6" y2="137.1"/>
	<line fill="#91C7B4" stroke="#91C7B4" stroke-miterlimit="10" x1="-122.4" y1="142.4" x2="-159.8" y2="142.4"/>
	<line fill="#91C7B4" stroke="#91C7B4" stroke-miterlimit="10" x1="-131.2" y1="147.7" x2="-154.4" y2="147.7"/>
	<line fill="#91C7B4" stroke="#91C7B4" stroke-miterlimit="10" x1="-97.1" y1="121.1" x2="-188.9" y2="121.1"/>
	<line fill="#91C7B4" stroke="#91C7B4" stroke-miterlimit="10" x1="-97.1" y1="115.8" x2="-188.9" y2="115.8"/>
	<line fill="#91C7B4" stroke="#91C7B4" stroke-miterlimit="10" x1="-101.2" y1="110.5" x2="-185.1" y2="110.5"/>
	<line fill="#91C7B4" stroke="#91C7B4" stroke-miterlimit="10" x1="-104.3" y1="105.2" x2="-182.1" y2="105.2"/>
	<line fill="#91C7B4" stroke="#91C7B4" stroke-miterlimit="10" x1="-105.2" y1="99.9" x2="-181.2" y2="99.9"/>
	<line fill="#91C7B4" stroke="#91C7B4" stroke-miterlimit="10" x1="-110.8" y1="94.5" x2="-174" y2="94.5"/>
	<line fill="#91C7B4" stroke="#91C7B4" stroke-miterlimit="10" x1="-114.3" y1="89.2" x2="-172.6" y2="89.2"/>
	<line fill="#91C7B4" stroke="#91C7B4" stroke-miterlimit="10" x1="-121.2" y1="83.9" x2="-165.9" y2="83.9"/>
	<line fill="#91C7B4" x1="-131.2" y1="78.6" x2="-149.9" y2="78.6"/>
	<g>
		<g>
			<line fill="#91C7B4" x1="75.9" y1="97.9" x2="75.9" y2="172.5"/>
			<rect x="75.4" y="97.9" fill="#91C7B4" width="1" height="74.6"/>
		</g>
	</g>
	<g>
		<g>
			<line fill="#91C7B4" x1="81.1" y1="97.9" x2="81.1" y2="172.5"/>
			<rect x="80.6" y="97.9" fill="#91C7B4" width="1" height="74.6"/>
		</g>
	</g>
	<g>
		<g>
			<line fill="#91C7B4" x1="86.4" y1="99.1" x2="86.4" y2="169.6"/>
			<rect x="85.9" y="99.1" fill="#91C7B4" width="1" height="70.5"/>
		</g>
	</g>
	<g>
		<g>
			<line fill="#91C7B4" x1="91.8" y1="101.7" x2="91.8" y2="166"/>
			<rect x="91.3" y="101.7" fill="#91C7B4" width="1" height="64.3"/>
		</g>
	</g>
	<g>
		<g>
			<line fill="#91C7B4" x1="97.1" y1="103.8" x2="97.1" y2="163.1"/>
			<rect x="96.6" y="103.8" fill="#91C7B4" width="1" height="59.4"/>
		</g>
	</g>
	<g>
		<g>
			<line fill="#91C7B4" x1="102.4" y1="106.2" x2="102.4" y2="157.7"/>
			<rect x="101.9" y="106.2" fill="#91C7B4" width="1" height="51.6"/>
		</g>
	</g>
	<g>
		<g>
			<line fill="#91C7B4" x1="107.7" y1="110.9" x2="107.7" y2="150.7"/>
			<rect x="107.2" y="110.9" fill="#91C7B4" width="1" height="39.8"/>
		</g>
	</g>
	<g>
		<g>
			<line fill="#91C7B4" x1="113" y1="119.9" x2="113" y2="147.1"/>
			<rect x="112.5" y="119.9" fill="#91C7B4" width="1" height="27.2"/>
		</g>
	</g>
	<g>
		<g>
			<line fill="#91C7B4" x1="118.4" y1="129.5" x2="118.4" y2="141.6"/>
			<rect x="117.9" y="129.5" fill="#91C7B4" width="1" height="12.1"/>
		</g>
	</g>
	<g>
		<g>
			<line fill="#91C7B4" x1="75.8" y1="99.6" x2="75.8" y2="174.1"/>
			<rect x="75.3" y="99.6" fill="#91C7B4" width="1" height="74.6"/>
		</g>
	</g>
	<g>
		<g>
			<line fill="#91C7B4" x1="70.5" y1="98.6" x2="70.5" y2="174.1"/>
			<rect x="70" y="98.6" fill="#91C7B4" width="1" height="75.6"/>
		</g>
	</g>
	<g>
		<g>
			<line fill="#91C7B4" x1="65.2" y1="99.8" x2="65.2" y2="166.2"/>
			<rect x="64.7" y="99.8" fill="#91C7B4" width="1" height="66.5"/>
		</g>
	</g>
	<g>
		<g>
			<line fill="#91C7B4" x1="59.8" y1="101.3" x2="59.8" y2="167.6"/>
			<rect x="59.3" y="101.3" fill="#91C7B4" width="1" height="66.3"/>
		</g>
	</g>
	<g>
		<g>
			<line fill="#91C7B4" x1="54.5" y1="105.4" x2="54.5" y2="161.8"/>
			<rect x="54" y="105.4" fill="#91C7B4" width="1" height="56.4"/>
		</g>
	</g>
	<g>
		<g>
			<line fill="#91C7B4" x1="49.2" y1="107.8" x2="49.2" y2="159.4"/>
			<rect x="48.7" y="107.8" fill="#91C7B4" width="1" height="51.6"/>
		</g>
	</g>
	<g>
		<g>
			<line fill="#91C7B4" x1="43.9" y1="112.6" x2="43.9" y2="150.4"/>
			<rect x="43.4" y="112.6" fill="#91C7B4" width="1" height="37.8"/>
		</g>
	</g>
	<g>
		<g>
			<line fill="#91C7B4" x1="38.6" y1="118.2" x2="38.6" y2="147.7"/>
			<rect x="38.1" y="118.2" fill="#91C7B4" width="1" height="29.5"/>
		</g>
	</g>
	<g>
		<g>
			<line fill="#91C7B4" x1="113.7" y1="141.2" x2="39.1" y2="141.2"/>
			<rect x="39.1" y="140.7" fill="#91C7B4" width="74.6" height="1"/>
		</g>
	</g>
	<g>
		<g>
			<line fill="#91C7B4" x1="108.4" y1="146.5" x2="38.2" y2="146.5"/>
			<rect x="38.2" y="146" fill="#91C7B4" width="70.2" height="1"/>
		</g>
	</g>
	<g>
		<g>
			<line fill="#91C7B4" x1="107.5" y1="151.8" x2="43" y2="151.8"/>
			<rect x="43" y="151.3" fill="#91C7B4" width="64.5" height="1"/>
		</g>
	</g>
	<g>
		<g>
			<line fill="#91C7B4" x1="100.9" y1="157.1" x2="51.6" y2="157.1"/>
			<rect x="51.6" y="156.6" fill="#91C7B4" width="49.3" height="1"/>
		</g>
	</g>
	<g>
		<g>
			<line fill="#91C7B4" x1="95.9" y1="162.4" x2="58.5" y2="162.4"/>
			<rect x="58.5" y="161.9" fill="#91C7B4" width="37.4" height="1"/>
		</g>
	</g>
	<g>
		<g>
			<line fill="#91C7B4" x1="87.1" y1="167.7" x2="63.9" y2="167.7"/>
			<rect x="63.9" y="167.2" fill="#91C7B4" width="23.2" height="1"/>
		</g>
	</g>
	<g>
		<g>
			<line fill="#91C7B4" x1="121.2" y1="141.1" x2="29.4" y2="141.1"/>
			<rect x="29.4" y="140.6" fill="#91C7B4" width="91.9" height="1"/>
		</g>
	</g>
	<g>
		<g>
			<line fill="#91C7B4" x1="121.2" y1="135.8" x2="31.4" y2="135.8"/>
			<rect x="31.4" y="135.3" fill="#91C7B4" width="89.9" height="1"/>
		</g>
	</g>
	<g>
		<g>
			<line fill="#91C7B4" x1="118.1" y1="130.5" x2="33.2" y2="130.5"/>
			<rect x="33.2" y="130" fill="#91C7B4" width="84.9" height="1"/>
		</g>
	</g>
	<g>
		<g>
			<line fill="#91C7B4" x1="116" y1="125.2" x2="36.2" y2="125.2"/>
			<rect x="36.2" y="124.7" fill="#91C7B4" width="79.8" height="1"/>
		</g>
	</g>
	<g>
		<g>
			<line fill="#91C7B4" x1="113" y1="119.9" x2="37.1" y2="119.9"/>
			<rect x="37.1" y="119.4" fill="#91C7B4" width="76" height="1"/>
		</g>
	</g>
	<g>
		<g>
			<line fill="#91C7B4" x1="107.5" y1="114.5" x2="44.3" y2="114.5"/>
			<rect x="44.3" y="114" fill="#91C7B4" width="63.1" height="1"/>
		</g>
	</g>
	<g>
		<g>
			<line fill="#91C7B4" x1="104" y1="109.2" x2="45.6" y2="109.2"/>
			<rect x="45.6" y="108.7" fill="#91C7B4" width="58.4" height="1"/>
		</g>
	</g>
	<g>
		<g>
			<line fill="#91C7B4" x1="97.1" y1="103.9" x2="52.3" y2="103.9"/>
			<rect x="52.3" y="103.4" fill="#91C7B4" width="44.7" height="1"/>
		</g>
	</g>
	<g>
		<g>
			<line fill="#91C7B4" x1="87.1" y1="98.6" x2="68.4" y2="98.6"/>
		</g>
	</g>
	<g>
		<path fill="#91C7B4" d="M14.4,65.7h2.3L23.2,81h-3l-1.4-3.5h-6.5L10.9,81h-3L14.4,65.7z M17.8,75.2l-2.3-6.2l-2.3,6.2H17.8z"/>
		<path fill="#91C7B4" d="M24.7,65.7H30c1,0,2,0.1,2.9,0.4c1,0.3,1.9,0.7,2.7,1.3c0.8,0.6,1.4,1.4,1.9,2.4c0.5,1,0.7,2.2,0.7,3.6
			c0,1.3-0.2,2.5-0.7,3.5c-0.5,1-1.1,1.8-1.9,2.4c-0.8,0.6-1.7,1.1-2.7,1.4c-1,0.3-2,0.4-2.9,0.4h-5.3V65.7z M29.6,78.6
			c0.7,0,1.4-0.1,2.1-0.2c0.7-0.2,1.3-0.4,1.9-0.8c0.6-0.4,1-0.9,1.4-1.6c0.4-0.7,0.5-1.5,0.5-2.6c0-1.1-0.2-2-0.5-2.7
			c-0.4-0.7-0.8-1.2-1.4-1.6c-0.6-0.4-1.2-0.7-1.9-0.8c-0.7-0.1-1.4-0.2-2.1-0.2h-2.2v10.6H29.6z"/>
		<path fill="#91C7B4" d="M38.7,65.7h3l4.1,11.8h0.1l4.2-11.8H53L47,81h-2.3L38.7,65.7z"/>
		<path fill="#91C7B4" d="M58.5,65.7h2.3L67.2,81h-3l-1.4-3.5h-6.5L54.9,81h-3L58.5,65.7z M61.8,75.2l-2.3-6.2l-2.3,6.2H61.8z"/>
		<path fill="#91C7B4" d="M68.7,65.7h3.5l7,11.4h0V65.7h2.7V81h-3.4l-7.1-11.8h0V81h-2.7V65.7z"/>
		<path fill="#91C7B4" d="M88.2,68.1h-4.6v-2.4h11.8v2.4h-4.6V81h-2.7V68.1z"/>
		<path fill="#91C7B4" d="M100.6,65.7h2.3l6.5,15.3h-3l-1.4-3.5h-6.5L97.1,81h-3L100.6,65.7z M104,75.2l-2.3-6.2l-2.3,6.2H104z"/>
		<path fill="#91C7B4" d="M123.6,80.2c-0.8,0.4-1.6,0.7-2.5,0.9c-0.9,0.2-2,0.3-3.1,0.3c-1.2,0-2.3-0.2-3.3-0.6
			c-1-0.4-1.9-0.9-2.6-1.7c-0.7-0.7-1.3-1.6-1.7-2.5c-0.4-1-0.6-2.1-0.6-3.3c0-1.2,0.2-2.3,0.6-3.3c0.4-1,1-1.8,1.7-2.5
			c0.7-0.7,1.6-1.2,2.6-1.6c1-0.4,2.1-0.6,3.2-0.6c1.2,0,2.3,0.2,3.3,0.5c1,0.4,1.8,0.8,2.4,1.4l-1.8,2c-0.4-0.4-0.9-0.8-1.6-1.1
			c-0.7-0.3-1.4-0.5-2.2-0.5c-0.8,0-1.5,0.1-2.1,0.4s-1.2,0.7-1.6,1.2s-0.8,1.1-1,1.8c-0.2,0.7-0.4,1.4-0.4,2.2
			c0,0.8,0.1,1.6,0.4,2.3c0.2,0.7,0.6,1.3,1.1,1.8c0.5,0.5,1,0.9,1.7,1.2c0.7,0.3,1.4,0.4,2.2,0.4c1.1,0,2.1-0.2,3-0.5v-3.9h-3.2
			v-2.2h5.7V80.2z"/>
		<path fill="#91C7B4" d="M126.8,65.7h9.9v2.4h-7.3V72h6.9v2.3h-6.9v4.3h7.6V81h-10.3V65.7z"/>
	</g>
	<g>
		<path fill="#91C7B4" d="M16.3,38.9H8.4v-4.1h20.4v4.1h-7.9v22.3h-4.6V38.9z"/>
		<path fill="#91C7B4" d="M31.8,34.8h17.1v4.1H36.4v6.7h11.9v3.9H36.4V57h13.2v4.2H31.8V34.8z"/>
		<path fill="#91C7B4" d="M54.1,34.8h6.1l12,19.7h0.1V34.8h4.6v26.3H71L58.8,40.8h-0.1v20.4h-4.6V34.8z"/>
		<path fill="#91C7B4" d="M82.5,34.8h6.1l12,19.7h0.1V34.8h4.6v26.3h-5.8L87.2,40.8h-0.1v20.4h-4.6V34.8z"/>
		<path fill="#91C7B4" d="M111,34.8h4.6v26.3H111V34.8z"/>
		<path fill="#91C7B4" d="M134.5,40.3c-0.5-0.6-1.2-1.2-2.1-1.6c-0.9-0.4-1.8-0.7-2.7-0.7c-0.5,0-1.1,0.1-1.6,0.2
			c-0.5,0.1-1,0.3-1.5,0.6c-0.4,0.3-0.8,0.7-1.1,1.1c-0.3,0.5-0.4,1-0.4,1.7c0,0.6,0.1,1.1,0.4,1.5c0.2,0.4,0.6,0.8,1,1.1
			s0.9,0.6,1.6,0.8c0.6,0.2,1.3,0.4,2,0.7c0.8,0.3,1.7,0.6,2.6,0.9c0.9,0.3,1.7,0.8,2.4,1.4c0.7,0.6,1.4,1.3,1.8,2.2
			c0.5,0.9,0.7,1.9,0.7,3.2c0,1.4-0.3,2.6-0.8,3.7c-0.5,1.1-1.2,1.9-2,2.6c-0.9,0.7-1.8,1.2-3,1.6s-2.3,0.5-3.6,0.5
			c-1.7,0-3.3-0.3-4.9-0.9c-1.6-0.6-2.9-1.6-3.9-2.8l3.3-3.1c0.6,0.9,1.5,1.6,2.5,2.1s2.1,0.8,3.1,0.8c0.5,0,1.1-0.1,1.6-0.2
			c0.6-0.1,1.1-0.4,1.5-0.7c0.4-0.3,0.8-0.7,1.1-1.2c0.3-0.5,0.4-1.1,0.4-1.8c0-0.7-0.2-1.3-0.5-1.7c-0.3-0.5-0.7-0.9-1.3-1.2
			c-0.5-0.3-1.2-0.6-1.9-0.9s-1.5-0.5-2.3-0.8c-0.8-0.2-1.6-0.5-2.3-0.9c-0.8-0.3-1.5-0.8-2.1-1.4c-0.6-0.6-1.1-1.3-1.5-2.1
			c-0.4-0.8-0.6-1.9-0.6-3.1c0-1.3,0.3-2.5,0.8-3.5c0.5-1,1.3-1.8,2.2-2.4c0.9-0.6,1.9-1.1,3-1.4c1.1-0.3,2.3-0.5,3.4-0.5
			c1.3,0,2.6,0.2,4,0.7c1.3,0.5,2.5,1.2,3.5,2.1L134.5,40.3z"/>
	</g>
	<g>
		<path fill="#91C7B4" d="M88.7,18.6c0.5,0.5,1.1,0.9,1.7,1.2c0.7,0.3,1.4,0.4,2.2,0.4s1.5-0.1,2.2-0.4s1.2-0.7,1.7-1.2
			c0.5-0.5,0.9-1.2,1.1-1.9c0.3-0.7,0.4-1.5,0.4-2.4c0-0.8-0.1-1.6-0.4-2.3c-0.3-0.7-0.6-1.3-1.1-1.9s-1-0.9-1.7-1.3
			c-0.7-0.3-1.4-0.5-2.2-0.5c-0.8,0-1.6,0.2-2.2,0.5c-0.7,0.3-1.2,0.7-1.7,1.3s-0.8,1.2-1.1,1.9c-0.3,0.7-0.4,1.5-0.4,2.3
			c0,0.9,0.1,1.7,0.4,2.4C87.8,17.5,88.2,18.1,88.7,18.6z"/>
		<path fill="#91C7B4" d="M1.8,0v123.5l72.6,60.6l69.3-59.7V0.1L1.8,0z M134.1,17c-0.2-0.3-0.5-0.5-0.8-0.7
			c-0.3-0.2-0.7-0.4-1.2-0.5c-0.4-0.2-0.9-0.3-1.4-0.5c-0.5-0.2-1-0.3-1.4-0.5c-0.5-0.2-0.9-0.5-1.3-0.8c-0.4-0.3-0.7-0.8-0.9-1.3
			c-0.2-0.5-0.4-1.1-0.4-1.9c0-0.8,0.2-1.5,0.5-2.1c0.3-0.6,0.8-1.1,1.3-1.5c0.5-0.4,1.2-0.7,1.9-0.9s1.4-0.3,2.1-0.3
			c0.8,0,1.6,0.1,2.4,0.4c0.8,0.3,1.5,0.7,2.2,1.3l-1.8,2c-0.3-0.4-0.7-0.7-1.3-1c-0.5-0.3-1.1-0.4-1.6-0.4c-0.3,0-0.7,0-1,0.1
			c-0.3,0.1-0.6,0.2-0.9,0.4c-0.3,0.2-0.5,0.4-0.7,0.7c-0.2,0.3-0.3,0.6-0.3,1c0,0.4,0.1,0.7,0.2,0.9s0.4,0.5,0.6,0.7
			s0.6,0.3,0.9,0.5c0.4,0.1,0.8,0.3,1.2,0.4c0.5,0.2,1,0.4,1.6,0.6c0.5,0.2,1,0.5,1.5,0.8c0.5,0.3,0.8,0.8,1.1,1.3s0.4,1.2,0.4,2
			c0,0.9-0.2,1.6-0.5,2.3c-0.3,0.6-0.7,1.2-1.3,1.6c-0.5,0.4-1.1,0.7-1.8,1c-0.7,0.2-1.4,0.3-2.2,0.3c-1,0-2-0.2-3-0.6
			c-1-0.4-1.8-1-2.4-1.7l2-1.9c0.4,0.5,0.9,1,1.6,1.3s1.3,0.5,1.9,0.5c0.3,0,0.7,0,1-0.1c0.3-0.1,0.7-0.2,0.9-0.4s0.5-0.4,0.7-0.7
			c0.2-0.3,0.3-0.7,0.3-1.1C134.4,17.6,134.3,17.3,134.1,17z M122,6.4h2.6l-1.9,6h-2.3L122,6.4z M103.8,6.4h3.7l7.3,12.1h0V6.4h2.8
			v16.1h-3.6L106.7,10h0v12.5h-2.8V6.4z M84.7,10.9c0.4-1,1-1.9,1.8-2.7c0.8-0.7,1.6-1.3,2.7-1.7c1-0.4,2.2-0.6,3.4-0.6
			c1.2,0,2.4,0.2,3.4,0.6c1,0.4,1.9,1,2.7,1.7s1.4,1.6,1.8,2.7c0.4,1,0.6,2.2,0.6,3.5c0,1.3-0.2,2.4-0.6,3.4c-0.4,1-1,1.9-1.8,2.7
			c-0.8,0.8-1.7,1.3-2.7,1.8c-1,0.4-2.2,0.6-3.4,0.6c-1.2,0-2.3-0.2-3.4-0.6s-1.9-1-2.7-1.8c-0.8-0.8-1.3-1.6-1.8-2.7
			c-0.4-1-0.6-2.2-0.6-3.4C84.1,13.1,84.3,11.9,84.7,10.9z M78.9,17c-0.2-0.3-0.5-0.5-0.8-0.7c-0.3-0.2-0.7-0.4-1.2-0.5
			c-0.4-0.2-0.9-0.3-1.4-0.5c-0.5-0.2-1-0.3-1.4-0.5c-0.5-0.2-0.9-0.5-1.3-0.8c-0.4-0.3-0.7-0.8-0.9-1.3c-0.2-0.5-0.4-1.1-0.4-1.9
			c0-0.8,0.2-1.5,0.5-2.1c0.3-0.6,0.8-1.1,1.3-1.5c0.5-0.4,1.2-0.7,1.9-0.9S76.6,6,77.3,6c0.8,0,1.6,0.1,2.4,0.4
			c0.8,0.3,1.5,0.7,2.2,1.3l-1.8,2c-0.3-0.4-0.7-0.7-1.3-1c-0.5-0.3-1.1-0.4-1.6-0.4c-0.3,0-0.7,0-1,0.1c-0.3,0.1-0.6,0.2-0.9,0.4
			c-0.3,0.2-0.5,0.4-0.7,0.7c-0.2,0.3-0.3,0.6-0.3,1c0,0.4,0.1,0.7,0.2,0.9s0.4,0.5,0.6,0.7s0.6,0.3,0.9,0.5
			c0.4,0.1,0.8,0.3,1.2,0.4c0.5,0.2,1,0.4,1.6,0.6c0.5,0.2,1,0.5,1.5,0.8c0.5,0.3,0.8,0.8,1.1,1.3s0.4,1.2,0.4,2
			c0,0.9-0.2,1.6-0.5,2.3c-0.3,0.6-0.7,1.2-1.3,1.6c-0.5,0.4-1.1,0.7-1.8,1c-0.7,0.2-1.4,0.3-2.2,0.3c-1,0-2-0.2-3-0.6
			c-1-0.4-1.8-1-2.4-1.7l2-1.9c0.4,0.5,0.9,1,1.6,1.3s1.3,0.5,1.9,0.5c0.3,0,0.7,0,1-0.1c0.3-0.1,0.7-0.2,0.9-0.4s0.5-0.4,0.7-0.7
			c0.2-0.3,0.3-0.7,0.3-1.1C79.2,17.6,79.1,17.3,78.9,17z M54.7,10.9c0.4-1,1-1.9,1.8-2.7c0.8-0.7,1.7-1.3,2.7-1.7
			c1-0.4,2.2-0.6,3.4-0.6c1.3,0,2.4,0.2,3.5,0.6c1,0.4,1.9,0.9,2.5,1.5l-1.9,2.1c-0.4-0.5-1-0.8-1.7-1.2c-0.7-0.3-1.5-0.5-2.4-0.5
			c-0.8,0-1.6,0.2-2.3,0.5c-0.7,0.3-1.3,0.7-1.7,1.3c-0.5,0.5-0.8,1.2-1.1,1.9c-0.3,0.7-0.4,1.5-0.4,2.3c0,0.9,0.1,1.7,0.4,2.4
			c0.3,0.7,0.6,1.3,1.1,1.9c0.5,0.5,1.1,0.9,1.8,1.2c0.7,0.3,1.5,0.4,2.4,0.4c1.2,0,2.3-0.2,3.1-0.6v-4.1h-3.3v-2.4h6.1v8.4
			c-0.8,0.4-1.7,0.7-2.6,0.9c-1,0.2-2.1,0.3-3.3,0.3c-1.3,0-2.4-0.2-3.5-0.6c-1.1-0.4-2-1-2.7-1.8c-0.8-0.8-1.4-1.6-1.8-2.7
			S54,15.6,54,14.4C54,13.1,54.2,11.9,54.7,10.9z M41.2,6.4h10.5v2.5H44V13h7.3v2.4H44v4.6H52v2.5H41.2V6.4z M27.1,6.4h5.5
			c0.7,0,1.5,0.1,2.2,0.2c0.7,0.2,1.3,0.4,1.9,0.8c0.5,0.4,1,0.8,1.3,1.4c0.3,0.6,0.5,1.3,0.5,2.2c0,1.2-0.3,2.1-1,2.9
			s-1.5,1.2-2.6,1.5l4.2,7.1h-3.4L32,15.7h-2.1v6.8h-2.8V6.4z M9.8,10.9c0.4-1,1-1.9,1.8-2.7c0.8-0.7,1.7-1.3,2.7-1.7
			c1-0.4,2.2-0.6,3.4-0.6c1.3,0,2.4,0.2,3.5,0.6c1,0.4,1.9,0.9,2.5,1.5l-1.9,2.1c-0.4-0.5-1-0.8-1.7-1.2c-0.7-0.3-1.5-0.5-2.4-0.5
			c-0.8,0-1.6,0.2-2.3,0.5c-0.7,0.3-1.3,0.7-1.7,1.3c-0.5,0.5-0.8,1.2-1.1,1.9c-0.3,0.7-0.4,1.5-0.4,2.3c0,0.9,0.1,1.7,0.4,2.4
			c0.3,0.7,0.6,1.3,1.1,1.9c0.5,0.5,1.1,0.9,1.8,1.2c0.7,0.3,1.5,0.4,2.4,0.4c1.2,0,2.3-0.2,3.1-0.6v-4.1h-3.3v-2.4h6.1v8.4
			c-0.8,0.4-1.7,0.7-2.6,0.9c-1,0.2-2.1,0.3-3.3,0.3c-1.3,0-2.4-0.2-3.5-0.6c-1.1-0.4-2-1-2.7-1.8c-0.8-0.8-1.4-1.6-1.8-2.7
			s-0.6-2.2-0.6-3.4C9.1,13.1,9.3,11.9,9.8,10.9z M141.9,114.4l-67.6,59.8L3.5,113.6V26.9l138.4,0.1V114.4z"/>
		<path fill="#91C7B4" d="M33.4,13.2c0.4-0.1,0.8-0.2,1.1-0.3c0.3-0.2,0.6-0.4,0.8-0.7c0.2-0.3,0.3-0.7,0.3-1.2
			c0-0.4-0.1-0.8-0.3-1.1c-0.2-0.3-0.4-0.5-0.7-0.7s-0.6-0.3-1-0.3c-0.4-0.1-0.7-0.1-1.1-0.1h-2.5v4.5h2.3
			C32.6,13.3,33,13.3,33.4,13.2z"/>
	</g>
	<g>
		<path fill="#91C7B4" d="M28.6,136.3c15.1-56.9,83.1-54.4,95.3,3l-3.6-0.7c-14.2-50.8-71.5-54.4-88.5,0L28.6,136.3z"/>
	</g>
	<g>
		<g>
			<path fill="#91C7B4" d="M93.2,114.2c-3.7-1.8-8.1-2.2-12.3-0.6c-4.2,1.6-7.2,4.8-8.7,8.6c2.9,1.8,5.4,4.7,6.8,8.5
				c1.4,3.7,1.5,7.6,0.6,10.9c3.7,1.8,8.1,2.2,12.3,0.6c4.2-1.6,7.2-4.8,8.7-8.6c-2.9-1.8-5.4-4.7-6.8-8.5
				C92.4,121.3,92.2,117.4,93.2,114.2z"/>
		</g>
		<g>
			<path fill="#91C7B4" d="M72,123.3c-1.2,3.1-1.3,6.6,0,10c1.3,3.4,3.7,5.9,6.7,7.4c0.9-3,0.7-6.4-0.5-9.8
				C76.8,127.6,74.6,124.9,72,123.3z"/>
		</g>
		<g>
			<path fill="#91C7B4" d="M94.2,114.8c-0.9,2.9-0.8,6.4,0.5,9.8c1.3,3.4,3.5,6,6.1,7.6c1.2-3.1,1.3-6.6,0.1-10
				C99.7,118.8,97.2,116.2,94.2,114.8z"/>
		</g>
	</g>
</g>
</svg>
