<?xml version="1.0" encoding="utf-8"?>
<!-- Generator: Adobe Illustrator 18.0.0, SVG Export Plug-In . SVG Version: 6.00 Build 0)  -->
<!DOCTYPE svg PUBLIC "-//W3C//DTD SVG 1.1//EN" "http://www.w3.org/Graphics/SVG/1.1/DTD/svg11.dtd">
<svg version="1.1" xmlns="http://www.w3.org/2000/svg" xmlns:xlink="http://www.w3.org/1999/xlink" x="0px" y="0px"
	 viewBox="46 0 408 302" enable-background="new 46 0 408 302" xml:space="preserve">
<g id="Layer_1">
	<rect x="72.8" y="18.4" fill="#E6E6E6" width="356" height="251.6"/>
	<circle fill="#FF766A" cx="84.9" cy="28.1" r="3.9"/>
	<circle fill="#FFF874" cx="96.8" cy="28.1" r="3.9"/>
	<circle fill="#7FFFA4" cx="108.7" cy="28.1" r="3.9"/>
	<path fill="#E6E6E6" d="M189.9,190v-0.6l-2.6,2.6l2.6,2.6V194l-2-2L189.9,190z"/>
	<path fill="#F2F2F2" d="M165.8,241.9h-56.3c-0.9,0-1.6-0.7-1.6-1.6v-67c0-0.9,0.7-1.6,1.6-1.6h56.2c0.9,0,1.6,0.7,1.6,1.6v67
		C167.4,241.2,166.7,241.9,165.8,241.9z"/>
	<text transform="matrix(1 0 0 1 112.377 221.2344)" fill="#525657" font-family="'Montserrat-Bold'" font-size="5.3404">Article</text>
	<g>
		<text transform="matrix(1 0 0 1 112.5933 234.6524)" fill="#787E80" font-family="'Montserrat-Regular'" font-size="4.747">View</text>
	</g>
	<path fill="#E6E6E6" d="M112.7,190v-0.6l-2.6,2.6l2.6,2.6V194l-2-2L112.7,190z"/>
	<path fill="#E6E6E6" d="M162.5,194.1v0.6l2.6-2.6l-2.6-2.6v0.6l2,2L162.5,194.1z"/>
	<path fill="#B8B8B8" d="M166.5,171h-57.7c-0.5,0-0.9,0.4-0.9,0.9v38.8c-0.1,0.1,59.3-0.1,59.3,0v-38.8
		C167.4,171.4,167,171,166.5,171z"/>
	<text transform="matrix(1 0 0 1 289.6875 52.5357)" font-family="'Khula-Bold'" font-size="5.9338">About</text>
	<text transform="matrix(1 0 0 1 325.2911 52.5357)" font-family="'Khula-Bold'" font-size="5.9338">Shop</text>
	<text transform="matrix(1 0 0 1 354.959 52.5357)" font-family="'Khula-Bold'" font-size="5.9338">Contact</text>
	<g>
		<path d="M404.1,52.8c-0.5,0-0.8,0.4-0.8,0.8c0,0.5,0.3,0.8,0.8,0.8c0.5,0,0.8-0.4,0.8-0.8C404.9,53.2,404.6,52.8,404.1,52.8z
			 M401.8,46.5v0.8h0.8l1.4,3l-0.5,0.9c-0.1,0.1-0.1,0.2-0.1,0.4c0,0.5,0.4,0.8,0.8,0.8h4.7v-0.8h-4.6c-0.1,0-0.1-0.1-0.1-0.1
			s0,0,0-0.1l0.4-0.6h3c0.3,0,0.5-0.2,0.7-0.4l1.4-2.6c0-0.1,0.1-0.2,0.1-0.2c0-0.2-0.2-0.4-0.4-0.4h-5.8l-0.4-0.8L401.8,46.5
			L401.8,46.5z M408.1,52.8c-0.5,0-0.8,0.4-0.8,0.8c0,0.5,0.3,0.8,0.8,0.8c0.5,0,0.8-0.4,0.8-0.8C408.8,53.2,408.5,52.8,408.1,52.8z
			"/>
		<path fill="none" d="M401.4,45.7h9.5v9.5h-9.5V45.7z"/>
	</g>
	<line fill="none" stroke="#999999" stroke-width="4" stroke-miterlimit="10" x1="-265.2" y1="499.6" x2="18.9" y2="499.6"/>
	<path fill="none" stroke="#E6E6E6" stroke-miterlimit="10" d="M123.4,443.7"/>
	<path fill="none" stroke="#E6E6E6" stroke-miterlimit="10" d="M116.7,433.5"/>
	<path fill="none" stroke="#E6E6E6" stroke-miterlimit="10" d="M123.4,423.5"/>
	<path fill="none" stroke="#E6E6E6" stroke-miterlimit="10" d="M228,423.5"/>
	<path fill="none" stroke="#E6E6E6" stroke-miterlimit="10" d="M234.6,433.6"/>
	<text transform="matrix(1 0 0 1 89.6832 52.5357)" font-family="'Khula-Bold'" font-size="5.9338">BRAND</text>
	<rect x="98" y="106.6" fill="#B8B8B8" width="50.7" height="7.9"/>
	<rect x="160.3" y="106.6" fill="#B8B8B8" width="20.2" height="7.9"/>
	<rect x="222.5" y="106.6" fill="#B8B8B8" width="71.5" height="7.9"/>
	<rect x="191.4" y="106.6" fill="#B8B8B8" width="20.2" height="7.9"/>
	<rect x="98" y="122.2" fill="#B8B8B8" width="56.8" height="7.9"/>
	<rect x="167.7" y="122.2" fill="#B8B8B8" width="22.6" height="7.9"/>
	<rect x="237.5" y="122.2" fill="#B8B8B8" width="80.2" height="7.9"/>
	<rect x="202.7" y="122.2" fill="#B8B8B8" width="22.6" height="7.9"/>
	<rect x="-287.7" y="21.8" fill="#B8B8B8" width="304.4" height="50.2"/>
	<circle fill="#E6E6E6" cx="-264.4" cy="46.8" r="16.2"/>
	<rect x="-230.7" y="39.1" fill="#E6E6E6" width="55.3" height="7.9"/>
	<rect x="-137.5" y="31.8" fill="#E6E6E6" width="55.3" height="6.8"/>
	<rect x="-77.3" y="31.6" fill="#E6E6E6" width="21.8" height="7"/>
	<rect x="-110.9" y="41.2" fill="#E6E6E6" width="55.3" height="6.8"/>
	<rect x="-137.5" y="40.9" fill="#E6E6E6" width="21.8" height="7"/>
	<rect x="-137.5" y="49.7" fill="#E6E6E6" width="55.3" height="6.8"/>
	<rect x="-77.3" y="49.5" fill="#E6E6E6" width="21.8" height="7"/>
	<rect x="-287.7" y="91.8" fill="#B8B8B8" width="304.4" height="50.2"/>
	<circle fill="#E6E6E6" cx="-264.4" cy="116.9" r="16.2"/>
	<rect x="-230.7" y="109.1" fill="#E6E6E6" width="55.3" height="7.9"/>
	<rect x="-137.5" y="101.9" fill="#E6E6E6" width="55.3" height="6.8"/>
	<rect x="-77.3" y="101.6" fill="#E6E6E6" width="21.8" height="7"/>
	<rect x="-110.9" y="111.2" fill="#E6E6E6" width="55.3" height="6.8"/>
	<rect x="-137.5" y="111" fill="#E6E6E6" width="21.8" height="7"/>
	<rect x="-137.5" y="119.8" fill="#E6E6E6" width="55.3" height="6.8"/>
	<rect x="-77.3" y="119.5" fill="#E6E6E6" width="21.8" height="7"/>
	<rect x="-287.7" y="156.4" fill="#B8B8B8" width="304.4" height="50.2"/>
	<circle fill="#E6E6E6" cx="-264.4" cy="181.5" r="16.2"/>
	<rect x="-230.7" y="173.7" fill="#E6E6E6" width="55.3" height="7.9"/>
	<rect x="-137.5" y="166.5" fill="#E6E6E6" width="55.3" height="6.8"/>
	<rect x="-77.3" y="166.2" fill="#E6E6E6" width="21.8" height="7"/>
	<rect x="-110.9" y="175.8" fill="#E6E6E6" width="55.3" height="6.8"/>
	<rect x="-137.5" y="175.6" fill="#E6E6E6" width="21.8" height="7"/>
	<rect x="-137.5" y="184.4" fill="#E6E6E6" width="55.3" height="6.8"/>
	<rect x="-77.3" y="184.1" fill="#E6E6E6" width="21.8" height="7"/>
	<rect x="98" y="77.5" fill="#B8B8B8" width="81.6" height="18.4"/>
	<path fill="#F2F2F2" d="M237.4,241.9h-56.2c-0.9,0-1.6-0.7-1.6-1.6v-67c0-0.9,0.7-1.6,1.6-1.6h56.2c0.9,0,1.6,0.7,1.6,1.6v67
		C238.9,241.2,238.2,241.9,237.4,241.9z"/>
	<text transform="matrix(1 0 0 1 183.9981 221.2344)" fill="#525657" font-family="'Montserrat-Bold'" font-size="5.3404">Article</text>
	<g>
		<text transform="matrix(1 0 0 1 184.2148 234.6524)" fill="#787E80" font-family="'Montserrat-Regular'" font-size="4.747">View</text>
	</g>
	<path fill="#E6E6E6" d="M184.4,190v-0.6l-2.6,2.6l2.6,2.6V194l-2-2L184.4,190z"/>
	<path fill="#B8B8B8" d="M238.1,171h-57.7c-0.5,0-0.9,0.4-0.9,0.9v38.8c-0.1,0.1,59.3-0.1,59.3,0v-38.8
		C238.9,171.4,238.6,171,238.1,171z"/>
	<path fill="#F2F2F2" d="M316.1,241.9h-56.2c-0.9,0-1.6-0.7-1.6-1.6v-67c0-0.9,0.7-1.6,1.6-1.6h56.2c0.9,0,1.6,0.7,1.6,1.6v67
		C317.6,241.2,316.9,241.9,316.1,241.9z"/>
	<text transform="matrix(1 0 0 1 262.665 221.2344)" fill="#525657" font-family="'Montserrat-Bold'" font-size="5.3404">Article</text>
	<g>
		<text transform="matrix(1 0 0 1 262.8819 234.6524)" fill="#787E80" font-family="'Montserrat-Regular'" font-size="4.747">View</text>
	</g>
	<path fill="#E6E6E6" d="M263.1,190v-0.6l-2.6,2.6l2.6,2.6V194l-2-2L263.1,190z"/>
	<path fill="#B8B8B8" d="M316.8,171h-57.7c-0.5,0-0.9,0.4-0.9,0.9v38.8c-0.1,0.1,59.3-0.1,59.3,0v-38.8
		C317.6,171.4,317.2,171,316.8,171z"/>
	<path fill="#F2F2F2" d="M394.7,241.9h-56.2c-0.9,0-1.6-0.7-1.6-1.6v-67c0-0.9,0.7-1.6,1.6-1.6h56.2c0.9,0,1.6,0.7,1.6,1.6v67
		C396.2,241.2,395.5,241.9,394.7,241.9z"/>
	<text transform="matrix(1 0 0 1 341.2637 221.2344)" fill="#525657" font-family="'Montserrat-Bold'" font-size="5.3404">Article</text>
	<g>
		<text transform="matrix(1 0 0 1 341.4804 234.6524)" fill="#787E80" font-family="'Montserrat-Regular'" font-size="4.747">View</text>
	</g>
	<path fill="#E6E6E6" d="M341.7,190v-0.6L339,192l2.6,2.6V194l-2-2L341.7,190z"/>
	<path fill="#B8B8B8" d="M395.4,171h-57.7c-0.5,0-0.9,0.4-0.9,0.9v38.8c-0.1,0.1,59.3-0.1,59.3,0v-38.8
		C396.2,171.4,395.8,171,395.4,171z"/>
	<g id="content-a">
		<rect x="94" y="68.6" opacity="0.5" fill="#F0F0F0" enable-background="new    " width="311.9" height="69.4"/>
	</g>
</g>
<g id="content-a_1_">
	<g id="content-a_2_">
		
			<rect x="89.8" y="68.6" opacity="0.5" fill="#F0F0F0" stroke="#6AFFCA" stroke-width="5" stroke-miterlimit="10" enable-background="new    " width="322" height="77.4"/>
	</g>
</g>
</svg>
