<?xml version="1.0" encoding="utf-8"?>
<!-- Generator: Adobe Illustrator 18.0.0, SVG Export Plug-In . SVG Version: 6.00 Build 0)  -->
<!DOCTYPE svg PUBLIC "-//W3C//DTD SVG 1.1//EN" "http://www.w3.org/Graphics/SVG/1.1/DTD/svg11.dtd">
<svg version="1.1" xmlns="http://www.w3.org/2000/svg" xmlns:xlink="http://www.w3.org/1999/xlink" x="0px" y="0px"
	 viewBox="55 79 390 353" enable-background="new 55 79 390 353" xml:space="preserve">
<g id="Layer_1">
	<rect x="72.7" y="98" fill="#E6E6E6" width="356.3" height="314"/>
	<circle fill="#FF766A" cx="84.8" cy="107.8" r="3.9"/>
	<circle fill="#FFF874" cx="96.7" cy="107.8" r="3.9"/>
	<circle fill="#7FFFA4" cx="108.6" cy="107.8" r="3.9"/>
	<path fill="#E6E6E6" d="M-562.1,164v-0.6l-2.6,2.6l2.6,2.6V168l-2-2L-562.1,164z"/>
	<path fill="#F2F2F2" d="M-586.2,216h-56.3c-0.9,0-1.6-0.7-1.6-1.6v-67.1c0-0.9,0.7-1.6,1.6-1.6h56.2c0.9,0,1.6,0.7,1.6,1.6v67.1
		C-584.7,215.3-585.4,216-586.2,216z"/>
	<text transform="matrix(1 0 0 1 -639.6666 195.2553)" fill="#525657" font-family="'Montserrat-Bold'" font-size="5.3445">Coach</text>
	<g>
		<text transform="matrix(1 0 0 1 -639.4497 208.6835)" fill="#787E80" font-family="'Montserrat-Regular'" font-size="4.7507">View</text>
	</g>
	<path fill="#E6E6E6" d="M-639.3,164v-0.6l-2.6,2.6l2.6,2.6V168l-2-2L-639.3,164z"/>
	<path fill="#E6E6E6" d="M-589.5,168v0.6l2.6-2.6l-2.6-2.6v0.6l2,2L-589.5,168z"/>
	<path fill="#B8B8B8" d="M-585.5,144.9h-57.7c-0.5,0-0.9,0.4-0.9,0.9v38.9c-0.1,0.1,59.3-0.1,59.3,0v-38.9
		C-584.7,145.3-585,144.9-585.5,144.9z"/>
	<text transform="matrix(1 0 0 1 289.7188 132.2666)" font-family="'Khula-Bold'" font-size="5.9384">About</text>
	<text transform="matrix(1 0 0 1 325.3496 132.2666)" font-family="'Khula-Bold'" font-size="5.9384">Shop</text>
	<text transform="matrix(1 0 0 1 355.0409 132.2666)" font-family="'Khula-Bold'" font-size="5.9384">Contact</text>
	<g>
		<path d="M404.2,132.5c-0.5,0-0.8,0.4-0.8,0.8c0,0.5,0.3,0.8,0.8,0.8c0.5,0,0.8-0.4,0.8-0.8C405.1,132.9,404.7,132.5,404.2,132.5z
			 M401.9,126.1v0.8h0.8l1.4,3l-0.5,0.9c-0.1,0.1-0.1,0.2-0.1,0.4c0,0.5,0.4,0.8,0.8,0.8h4.8v-0.8h-4.6c-0.1,0-0.1-0.1-0.1-0.1
			s0,0,0-0.1l0.4-0.6h3c0.3,0,0.5-0.2,0.7-0.4l1.4-2.6c0-0.1,0.1-0.2,0.1-0.2c0-0.2-0.2-0.4-0.4-0.4h-5.8l-0.4-0.8L401.9,126.1
			L401.9,126.1z M408.2,132.5c-0.5,0-0.8,0.4-0.8,0.8c0,0.5,0.3,0.8,0.8,0.8s0.8-0.4,0.8-0.8C409,132.9,408.6,132.5,408.2,132.5z"/>
		<path fill="none" d="M401.5,125.4h9.5v9.5h-9.5V125.4z"/>
	</g>
	<line fill="none" stroke="#999999" stroke-width="4" stroke-miterlimit="10" x1="-265.6" y1="579.7" x2="18.7" y2="579.7"/>
	<path fill="none" stroke="#E6E6E6" stroke-miterlimit="10" d="M123.3,523.8"/>
	<path fill="none" stroke="#E6E6E6" stroke-miterlimit="10" d="M116.6,513.5"/>
	<path fill="none" stroke="#E6E6E6" stroke-miterlimit="10" d="M123.3,503.6"/>
	<path fill="none" stroke="#E6E6E6" stroke-miterlimit="10" d="M228,503.6"/>
	<path fill="none" stroke="#E6E6E6" stroke-miterlimit="10" d="M234.6,513.7"/>
	<text transform="matrix(1 0 0 1 89.5585 132.2666)" font-family="'Khula-Bold'" font-size="5.9384">BRAND</text>
	<rect x="-288.1" y="101.5" fill="#B8B8B8" width="304.6" height="50.2"/>
	<circle fill="#E6E6E6" cx="-264.8" cy="126.6" r="16.2"/>
	<rect x="-231.1" y="118.7" fill="#E6E6E6" width="55.3" height="7.9"/>
	<rect x="-137.9" y="111.6" fill="#E6E6E6" width="55.3" height="6.8"/>
	<rect x="-77.6" y="111.3" fill="#E6E6E6" width="21.8" height="7"/>
	<rect x="-111.1" y="120.9" fill="#E6E6E6" width="55.3" height="6.8"/>
	<rect x="-137.9" y="120.6" fill="#E6E6E6" width="21.8" height="7"/>
	<rect x="-137.9" y="129.4" fill="#E6E6E6" width="55.3" height="6.8"/>
	<rect x="-77.6" y="129.2" fill="#E6E6E6" width="21.8" height="7"/>
	<rect x="-288.1" y="171.6" fill="#B8B8B8" width="304.6" height="50.2"/>
	<circle fill="#E6E6E6" cx="-264.8" cy="196.7" r="16.2"/>
	<rect x="-231.1" y="188.8" fill="#E6E6E6" width="55.3" height="7.9"/>
	<rect x="-137.9" y="181.6" fill="#E6E6E6" width="55.3" height="6.8"/>
	<rect x="-77.6" y="181.4" fill="#E6E6E6" width="21.8" height="7"/>
	<rect x="-111.1" y="190.9" fill="#E6E6E6" width="55.3" height="6.8"/>
	<rect x="-137.9" y="190.7" fill="#E6E6E6" width="21.8" height="7"/>
	<rect x="-137.9" y="199.5" fill="#E6E6E6" width="55.3" height="6.8"/>
	<rect x="-77.6" y="199.3" fill="#E6E6E6" width="21.8" height="7"/>
	<rect x="-288.1" y="236.3" fill="#B8B8B8" width="304.6" height="50.2"/>
	<circle fill="#E6E6E6" cx="-264.8" cy="261.3" r="16.2"/>
	<rect x="-231.1" y="253.6" fill="#E6E6E6" width="55.3" height="7.9"/>
	<rect x="-137.9" y="246.2" fill="#E6E6E6" width="55.3" height="6.8"/>
	<rect x="-77.6" y="246.1" fill="#E6E6E6" width="21.8" height="7"/>
	<rect x="-111.1" y="255.6" fill="#E6E6E6" width="55.3" height="6.8"/>
	<rect x="-137.9" y="255.4" fill="#E6E6E6" width="21.8" height="7"/>
	<rect x="-137.9" y="264.2" fill="#E6E6E6" width="55.3" height="6.8"/>
	<rect x="-77.6" y="264" fill="#E6E6E6" width="21.8" height="7"/>
	<g>
		<rect x="97.9" y="186.3" fill="#B8B8B8" width="50.8" height="7.9"/>
		<rect x="160.2" y="186.3" fill="#B8B8B8" width="20.2" height="7.9"/>
		<rect x="222.5" y="186.3" fill="#B8B8B8" width="71.6" height="7.9"/>
		<rect x="191.4" y="186.3" fill="#B8B8B8" width="20.2" height="7.9"/>
		<rect x="97.9" y="201.9" fill="#B8B8B8" width="56.9" height="7.9"/>
		<rect x="167.7" y="201.9" fill="#B8B8B8" width="22.7" height="7.9"/>
		<rect x="237.5" y="201.9" fill="#B8B8B8" width="80.2" height="7.9"/>
		<rect x="202.6" y="201.9" fill="#B8B8B8" width="22.7" height="7.9"/>
		<rect x="97.9" y="157.3" fill="#B8B8B8" width="81.7" height="18.4"/>
	</g>
	<path fill="#F2F2F2" d="M-514.6,216h-56.2c-0.9,0-1.6-0.7-1.6-1.6v-67.1c0-0.9,0.7-1.6,1.6-1.6h56.2c0.9,0,1.6,0.7,1.6,1.6v67.1
		C-513,215.3-513.7,216-514.6,216z"/>
	<g>
		<text transform="matrix(1 0 0 1 -567.7725 208.6835)" fill="#787E80" font-family="'Montserrat-Regular'" font-size="4.7507">View</text>
	</g>
	<path fill="#E6E6E6" d="M-567.6,164v-0.6l-2.6,2.6l2.6,2.6V168l-2-2L-567.6,164z"/>
	<path fill="#B8B8B8" d="M-513.9,144.9h-57.7c-0.5,0-0.9,0.4-0.9,0.9v38.9c-0.1,0.1,59.3-0.1,59.3,0v-38.9
		C-513,145.3-513.4,144.9-513.9,144.9z"/>
	<path fill="#F2F2F2" d="M-435.8,216h-56.2c-0.9,0-1.6-0.7-1.6-1.6v-67.1c0-0.9,0.7-1.6,1.6-1.6h56.2c0.9,0,1.6,0.7,1.6,1.6v67.1
		C-434.3,215.3-435,216-435.8,216z"/>
	<g>
		<text transform="matrix(1 0 0 1 -489.0444 208.6835)" fill="#787E80" font-family="'Montserrat-Regular'" font-size="4.7507">View</text>
	</g>
	<path fill="#E6E6E6" d="M-488.9,164v-0.6l-2.6,2.6l2.6,2.6V168l-2-2L-488.9,164z"/>
	<path fill="#B8B8B8" d="M-435.1,144.9h-57.7c-0.5,0-0.9,0.4-0.9,0.9v38.9c-0.1,0.1,59.3-0.1,59.3,0v-38.9
		C-434.3,145.3-434.7,144.9-435.1,144.9z"/>
	<path fill="#F2F2F2" d="M-357.2,216h-56.2c-0.9,0-1.6-0.7-1.6-1.6v-67.1c0-0.9,0.7-1.6,1.6-1.6h56.2c0.9,0,1.6,0.7,1.6,1.6v67.1
		C-355.6,215.3-356.3,216-357.2,216z"/>
	<g>
		<text transform="matrix(1 0 0 1 -410.3838 208.6835)" fill="#787E80" font-family="'Montserrat-Regular'" font-size="4.7507">View</text>
	</g>
	<path fill="#E6E6E6" d="M-410.2,164v-0.6l-2.6,2.6l2.6,2.6V168l-2-2L-410.2,164z"/>
	<path fill="#B8B8B8" d="M-356.5,144.9h-57.7c-0.5,0-0.9,0.4-0.9,0.9v38.9c-0.1,0.1,59.3-0.1,59.3,0v-38.9
		C-355.6,145.3-356,144.9-356.5,144.9z"/>
	<text transform="matrix(1 0 0 1 -568.9141 194.4765)" fill="#525657" font-family="'Montserrat-Bold'" font-size="5.3445">Coach</text>
	<text transform="matrix(1 0 0 1 -490.1758 194.4765)" fill="#525657" font-family="'Montserrat-Bold'" font-size="5.3445">Coach</text>
	<text transform="matrix(1 0 0 1 -410.3838 195.2553)" fill="#525657" font-family="'Montserrat-Bold'" font-size="5.3445">Coach</text>
	<rect x="111.1" y="249.6" fill="#F2F2F2" width="279" height="34.2"/>
	<text transform="matrix(1 0 0 1 147.9169 266.1073)" fill="#525657" font-family="'Montserrat-Bold'" font-size="5.2815">Product 1</text>
	<g>
		<text transform="matrix(1 0 0 1 147.9169 273.417)" fill="#787E80" font-family="'Montserrat-Regular'" font-size="4.6946">Qty: 1</text>
	</g>
	<circle fill="#B8B8B8" cx="127.6" cy="266.6" r="9.4"/>
	<g>
		<text transform="matrix(1 0 0 1 324.8418 268.418)" fill="#787E80" font-family="'Montserrat-Regular'" font-size="4.6946">79.00</text>
	</g>
	<g>
		<text transform="matrix(1 0 0 1 360.0508 268.418)" fill="#525657" font-family="'Montserrat-Bold'" font-size="5.2815">79.00</text>
	</g>
	<polyline fill="#F2F2F2" points="390.2,299.4 390.2,333.6 111.1,333.6 111.1,299.4 	"/>
	<text transform="matrix(1 0 0 1 147.9169 315.9882)" fill="#525657" font-family="'Montserrat-Bold'" font-size="5.2815">Product 2</text>
	<g>
		<text transform="matrix(1 0 0 1 147.9169 323.2978)" fill="#787E80" font-family="'Montserrat-Regular'" font-size="4.6946">Qty: 2</text>
	</g>
	<circle fill="#B8B8B8" cx="127.6" cy="316.6" r="9.4"/>
	<g>
		<text transform="matrix(1 0 0 1 324.8418 318.2989)" fill="#787E80" font-family="'Montserrat-Regular'" font-size="4.6946">79.00</text>
	</g>
	<g>
		<text transform="matrix(1 0 0 1 357.1172 318.2989)" fill="#525657" font-family="'Montserrat-Bold'" font-size="5.2815">158.00</text>
	</g>
	<path fill="#B8B8B8" d="M196.6,263.5l-0.8-0.8l-3.1,3.1l-3.1-3.1l-0.8,0.8l3.1,3.1l-3.1,3.1l0.8,0.8l3.1-3.1l3.1,3.1l0.8-0.8
		l-3.1-3.1L196.6,263.5z"/>
	<path fill="#B8B8B8" d="M196.6,313.4l-0.8-0.8l-3.1,3.1l-3.1-3.1l-0.8,0.8l3.1,3.1l-3.1,3.1l0.8,0.8l3.1-3.1l3.1,3.1l0.8-0.8
		l-3.1-3.1L196.6,313.4z"/>
	<g>
		<text transform="matrix(1 0 0 1 351.249 353.5078)" fill="#525657" font-family="'Montserrat-Bold'" font-size="5.2815">$ 237.00</text>
	</g>
	<g>
		<text transform="matrix(1 0 0 1 313.1035 353.5078)" fill="#787E80" font-family="'Montserrat-Regular'" font-size="4.6946">SubTotal</text>
	</g>
	<g>
		<path fill="#B8B8B8" d="M387.9,380h-55.5c-0.9,0-1.6-0.7-1.6-1.6v-8.6c0-0.9,0.7-1.6,1.6-1.6h55.5c0.9,0,1.6,0.7,1.6,1.6v8.6
			C389.4,379.4,388.7,380,387.9,380z"/>
		<text transform="matrix(1 0 0 1 347.4687 375.8212)" fill="#FFFFFF" font-family="'Montserrat-Regular'" font-size="4.6946">Checkout</text>
	</g>
	<g id="content-a">
		<g id="content-a_1_">
			<rect x="93.9" y="148.3" opacity="0.5" fill="#F0F0F0" enable-background="new    " width="312.1" height="69.5"/>
		</g>
	</g>
</g>
<g id="content-a_2_">
	<g id="content-a_3_">
		
			<rect x="88.8" y="147.6" opacity="0.5" fill="#F0F0F0" stroke="#6AFFCA" stroke-width="5" stroke-miterlimit="10" enable-background="new    " width="322" height="77.4"/>
	</g>
</g>
</svg>
