<?xml version="1.0" encoding="utf-8"?>
<!-- Generator: Adobe Illustrator 18.0.0, SVG Export Plug-In . SVG Version: 6.00 Build 0)  -->
<!DOCTYPE svg PUBLIC "-//W3C//DTD SVG 1.1//EN" "http://www.w3.org/Graphics/SVG/1.1/DTD/svg11.dtd">
<svg version="1.1" xmlns="http://www.w3.org/2000/svg" xmlns:xlink="http://www.w3.org/1999/xlink" x="0px" y="0px"
	 viewBox="55 0 390 409" enable-background="new 55 0 390 409" xml:space="preserve">
<g id="Layer_1">
	<rect x="72.8" y="18.4" fill="#E6E6E6" width="356" height="369.6"/>
	<circle fill="#FF766A" cx="84.9" cy="28.1" r="3.9"/>
	<circle fill="#FFF874" cx="96.8" cy="28.1" r="3.9"/>
	<circle fill="#7FFFA4" cx="108.7" cy="28.1" r="3.9"/>
	<path fill="#F2F2F2" d="M-66.3,364h-56.2c-0.9,0-1.6-0.7-1.6-1.6v-67c0-0.9,0.7-1.6,1.6-1.6h56.2c0.9,0,1.6,0.7,1.6,1.6v67
		C-64.7,363.3-65.4,364-66.3,364z"/>
	<text transform="matrix(1 0 0 1 -119.6876 343.3353)" fill="#525657" font-family="'Montserrat-Bold'" font-size="5.3404">Product</text>
	<line fill="none" stroke="#999999" stroke-miterlimit="10" x1="-119.6" y1="348.9" x2="-69.8" y2="348.9"/>
	<g>
		<text transform="matrix(1 0 0 1 -119.4713 356.7534)" fill="#787E80" font-family="'Montserrat-Regular'" font-size="4.747">Colors</text>
	</g>
	<path fill="#787E80" d="M-95.5,354.8l-1,1l-1-1l-0.3,0.3l1.3,1.3l1.3-1.3L-95.5,354.8z"/>
	<path fill="#E6E6E6" d="M-119.3,312.1v-0.6l-2.6,2.6l2.6,2.6v-0.6l-2-2L-119.3,312.1z"/>
	<path fill="#E6E6E6" d="M-69.5,316.2v0.6l2.6-2.6l-2.6-2.6v0.6l2,2L-69.5,316.2z"/>
	<path fill="#B8B8B8" d="M-65.6,293.1h-57.7c-0.5,0-0.9,0.4-0.9,0.9v38.8c-0.1,0.1,59.3-0.1,59.3,0v-38.8
		C-64.7,293.5-65.1,293.1-65.6,293.1z"/>
	<circle fill="#525657" stroke="#FFFFFF" stroke-miterlimit="10" cx="-75.5" cy="332.6" r="6"/>
	<text transform="matrix(1 0 0 1 -80.0113 334.304)" fill="#FFFFFF" font-family="'Khula-Regular'" font-size="4.747">$79</text>
	<path fill="#F2F2F2" d="M-140.5,364h-56.2c-0.9,0-1.6-0.7-1.6-1.6v-67c0-0.9,0.7-1.6,1.6-1.6h56.2c0.9,0,1.6,0.7,1.6,1.6v67
		C-138.9,363.3-139.6,364-140.5,364z"/>
	<text transform="matrix(1 0 0 1 -193.8603 343.3353)" fill="#525657" font-family="'Montserrat-Bold'" font-size="5.3404">Product</text>
	<line fill="none" stroke="#999999" stroke-miterlimit="10" x1="-194.3" y1="348.9" x2="-143.7" y2="348.9"/>
	<g>
		<text transform="matrix(1 0 0 1 -193.6427 356.7534)" fill="#787E80" font-family="'Montserrat-Regular'" font-size="4.747">Colors</text>
	</g>
	<path fill="#787E80" d="M-169.6,354.8l-1,1l-1-1l-0.3,0.3l1.3,1.3l1.3-1.3L-169.6,354.8z"/>
	<path fill="#E6E6E6" d="M-193.5,312.1v-0.6l-2.6,2.6l2.6,2.6v-0.6l-2-2L-193.5,312.1z"/>
	<path fill="#E6E6E6" d="M-143.7,316.2v0.6l2.6-2.6l-2.6-2.6v0.6l2,2L-143.7,316.2z"/>
	<path fill="#B8B8B8" d="M-139.8,293.1h-57.7c-0.5,0-0.9,0.4-0.9,0.9v38.8c-0.1,0.1,59.3-0.1,59.3,0v-38.8
		C-138.9,293.5-139.3,293.1-139.8,293.1z"/>
	<circle fill="#525657" stroke="#FFFFFF" stroke-miterlimit="10" cx="-149.6" cy="332.6" r="6"/>
	<text transform="matrix(1 0 0 1 -154.1837 334.304)" fill="#FFFFFF" font-family="'Khula-Regular'" font-size="4.747">$79</text>
	<path fill="#F2F2F2" d="M-214.6,364h-56.2c-0.9,0-1.6-0.7-1.6-1.6v-67c0-0.9,0.7-1.6,1.6-1.6h56.2c0.9,0,1.6,0.7,1.6,1.6v67
		C-213.1,363.3-213.8,364-214.6,364z"/>
	<text transform="matrix(1 0 0 1 -268.0327 343.3353)" fill="#525657" font-family="'Montserrat-Bold'" font-size="5.3404">Product</text>
	<line fill="none" stroke="#999999" stroke-miterlimit="10" x1="-268.2" y1="348.9" x2="-218.4" y2="348.9"/>
	<g>
		<text transform="matrix(1 0 0 1 -267.8154 356.7534)" fill="#787E80" font-family="'Montserrat-Regular'" font-size="4.747">Colors</text>
	</g>
	<path fill="#787E80" d="M-243.8,354.8l-1,1l-1-1l-0.3,0.3l1.3,1.3l1.3-1.3L-243.8,354.8z"/>
	<path fill="#E6E6E6" d="M-267.6,312.1v-0.6l-2.6,2.6l2.6,2.6v-0.6l-2-2L-267.6,312.1z"/>
	<path fill="#E6E6E6" d="M-217.8,316.2v0.6l2.6-2.6l-2.6-2.6v0.6l2,2L-217.8,316.2z"/>
	<path fill="#B8B8B8" d="M-213.9,293.1h-57.7c-0.5,0-0.9,0.4-0.9,0.9v38.8c-0.1,0.1,59.3-0.1,59.3,0v-38.8
		C-213.1,293.5-213.5,293.1-213.9,293.1z"/>
	<circle fill="#525657" stroke="#FFFFFF" stroke-miterlimit="10" cx="-223.8" cy="332.6" r="6"/>
	<text transform="matrix(1 0 0 1 -228.356 334.304)" fill="#FFFFFF" font-family="'Khula-Regular'" font-size="4.747">$79</text>
	<path fill="#F2F2F2" d="M-291.8,364h-56.2c-0.9,0-1.6-0.7-1.6-1.6v-67c0-0.9,0.7-1.6,1.6-1.6h56.2c0.9,0,1.6,0.7,1.6,1.6v67
		C-290.2,363.3-290.9,364-291.8,364z"/>
	<text transform="matrix(1 0 0 1 -345.1719 343.3353)" fill="#525657" font-family="'Montserrat-Bold'" font-size="5.3404">Product</text>
	<line fill="none" stroke="#999999" stroke-miterlimit="10" x1="-345.3" y1="348.9" x2="-295.5" y2="348.9"/>
	<g>
		<text transform="matrix(1 0 0 1 -344.9552 356.7534)" fill="#787E80" font-family="'Montserrat-Regular'" font-size="4.747">Colors</text>
	</g>
	<path fill="#787E80" d="M-321,354.8l-1,1l-1-1l-0.3,0.3l1.3,1.3l1.3-1.3L-321,354.8z"/>
	<path fill="#E6E6E6" d="M-344.8,312.1v-0.6l-2.6,2.6l2.6,2.6v-0.6l-2-2L-344.8,312.1z"/>
	<path fill="#E6E6E6" d="M-295,316.2v0.6l2.6-2.6l-2.6-2.6v0.6l2,2L-295,316.2z"/>
	<path fill="#B8B8B8" d="M-291.1,293.1h-57.7c-0.5,0-0.9,0.4-0.9,0.9v38.8c-0.1,0.1,59.3-0.1,59.3,0v-38.8
		C-290.2,293.5-290.6,293.1-291.1,293.1z"/>
	<circle fill="#525657" stroke="#FFFFFF" stroke-miterlimit="10" cx="-300.9" cy="332.6" r="6"/>
	<text transform="matrix(1 0 0 1 -305.4952 334.304)" fill="#FFFFFF" font-family="'Khula-Regular'" font-size="4.747">$79</text>
	<text transform="matrix(1 0 0 1 289.6875 52.5357)" font-family="'Khula-Bold'" font-size="5.9338">About</text>
	<text transform="matrix(1 0 0 1 325.2911 52.5357)" font-family="'Khula-Bold'" font-size="5.9338">Shop</text>
	<text transform="matrix(1 0 0 1 354.959 52.5357)" font-family="'Khula-Bold'" font-size="5.9338">Contact</text>
	<g>
		<path d="M404.1,52.8c-0.5,0-0.8,0.4-0.8,0.8c0,0.5,0.3,0.8,0.8,0.8c0.5,0,0.8-0.4,0.8-0.8C404.9,53.2,404.6,52.8,404.1,52.8z
			 M401.8,46.5v0.8h0.8l1.4,3l-0.5,0.9c-0.1,0.1-0.1,0.2-0.1,0.4c0,0.5,0.4,0.8,0.8,0.8h4.7v-0.8h-4.6c-0.1,0-0.1-0.1-0.1-0.1
			s0,0,0-0.1l0.4-0.6h3c0.3,0,0.5-0.2,0.7-0.4l1.4-2.6c0-0.1,0.1-0.2,0.1-0.2c0-0.2-0.2-0.4-0.4-0.4h-5.8l-0.4-0.8L401.8,46.5
			L401.8,46.5z M408.1,52.8c-0.5,0-0.8,0.4-0.8,0.8c0,0.5,0.3,0.8,0.8,0.8c0.5,0,0.8-0.4,0.8-0.8C408.8,53.2,408.5,52.8,408.1,52.8z
			"/>
		<path fill="none" d="M401.4,45.7h9.5v9.5h-9.5V45.7z"/>
	</g>
	<line fill="none" stroke="#999999" stroke-width="4" stroke-miterlimit="10" x1="-348.4" y1="375" x2="-64.4" y2="375"/>
	<path fill="none" stroke="#E6E6E6" stroke-miterlimit="10" d="M123.4,443.7"/>
	<path fill="none" stroke="#E6E6E6" stroke-miterlimit="10" d="M116.7,433.5"/>
	<path fill="none" stroke="#E6E6E6" stroke-miterlimit="10" d="M123.4,423.5"/>
	<path fill="none" stroke="#E6E6E6" stroke-miterlimit="10" d="M228,423.5"/>
	<path fill="none" stroke="#E6E6E6" stroke-miterlimit="10" d="M234.6,433.6"/>
	<text transform="matrix(1 0 0 1 89.6832 52.5357)" font-family="'Khula-Bold'" font-size="5.9338">BRAND</text>
	<rect x="98" y="106.6" fill="#B8B8B8" width="50.7" height="7.9"/>
	<rect x="160.3" y="106.6" fill="#B8B8B8" width="20.2" height="7.9"/>
	<rect x="222.5" y="106.6" fill="#B8B8B8" width="71.5" height="7.9"/>
	<rect x="191.4" y="106.6" fill="#B8B8B8" width="20.2" height="7.9"/>
	<rect x="98" y="122.2" fill="#B8B8B8" width="56.8" height="7.9"/>
	<rect x="167.7" y="122.2" fill="#B8B8B8" width="22.6" height="7.9"/>
	<rect x="237.5" y="122.2" fill="#B8B8B8" width="80.2" height="7.9"/>
	<rect x="202.7" y="122.2" fill="#B8B8B8" width="22.6" height="7.9"/>
	<rect x="96.8" y="186" fill="#B8B8B8" width="304.4" height="50.2"/>
	<circle fill="#E6E6E6" cx="120" cy="211.1" r="16.2"/>
	<rect x="153.7" y="203.3" fill="#E6E6E6" width="55.3" height="7.9"/>
	<rect x="246.9" y="196" fill="#E6E6E6" width="55.3" height="6.8"/>
	<rect x="307.1" y="195.8" fill="#E6E6E6" width="21.8" height="7"/>
	<rect x="273.6" y="205.4" fill="#E6E6E6" width="55.3" height="6.8"/>
	<rect x="246.9" y="205.1" fill="#E6E6E6" width="21.8" height="7"/>
	<rect x="246.9" y="213.9" fill="#E6E6E6" width="55.3" height="6.8"/>
	<rect x="307.1" y="213.7" fill="#E6E6E6" width="21.8" height="7"/>
	<rect x="96.8" y="256" fill="#B8B8B8" width="304.4" height="50.2"/>
	<circle fill="#E6E6E6" cx="120" cy="281.1" r="16.2"/>
	<rect x="153.7" y="273.3" fill="#E6E6E6" width="55.3" height="7.9"/>
	<rect x="246.9" y="266.1" fill="#E6E6E6" width="55.3" height="6.8"/>
	<rect x="307.1" y="265.8" fill="#E6E6E6" width="21.8" height="7"/>
	<rect x="273.6" y="275.4" fill="#E6E6E6" width="55.3" height="6.8"/>
	<rect x="246.9" y="275.2" fill="#E6E6E6" width="21.8" height="7"/>
	<rect x="246.9" y="284" fill="#E6E6E6" width="55.3" height="6.8"/>
	<rect x="307.1" y="283.7" fill="#E6E6E6" width="21.8" height="7"/>
	<rect x="96.8" y="320.6" fill="#B8B8B8" width="304.4" height="50.2"/>
	<circle fill="#E6E6E6" cx="120" cy="345.7" r="16.2"/>
	<rect x="153.7" y="337.9" fill="#E6E6E6" width="55.3" height="7.9"/>
	<rect x="246.9" y="330.7" fill="#E6E6E6" width="55.3" height="6.8"/>
	<rect x="307.1" y="330.4" fill="#E6E6E6" width="21.8" height="7"/>
	<rect x="273.6" y="340" fill="#E6E6E6" width="55.3" height="6.8"/>
	<rect x="246.9" y="339.8" fill="#E6E6E6" width="21.8" height="7"/>
	<rect x="246.9" y="348.6" fill="#E6E6E6" width="55.3" height="6.8"/>
	<rect x="307.1" y="348.3" fill="#E6E6E6" width="21.8" height="7"/>
	<rect x="98" y="77.5" fill="#B8B8B8" width="81.6" height="18.4"/>
</g>
<g id="content-a">
	<g id="content-a_1_">
		
			<rect x="88.8" y="68.6" opacity="0.5" fill="#F0F0F0" stroke="#6AFFCA" stroke-width="5" stroke-miterlimit="10" enable-background="new    " width="322" height="77.4"/>
	</g>
</g>
</svg>
